<?xml version="1.0" standalone="no"?>
<!DOCTYPE svg PUBLIC "-//W3C//DTD SVG 20010904//EN"
 "http://www.w3.org/TR/2001/REC-SVG-20010904/DTD/svg10.dtd">
<svg version="1.0" xmlns="http://www.w3.org/2000/svg"
 width="1280.000000pt" height="913.000000pt" viewBox="0 0 1280.000000 913.000000"
 preserveAspectRatio="xMidYMid meet">
<g transform="translate(0.000000,913.000000) scale(0.100000,-0.100000)"
fill="#000000" stroke="none">
<path d="M11868 8913 l-3 -118 -315 -5 -315 -5 -3 -77 -3 -78 36 0 c19 0 44
-5 54 -12 15 -9 28 -9 59 0 45 14 459 17 480 4 9 -6 12 -34 10 -103 l-3 -94
-285 -5 -285 -5 -3 -77 -3 -78 93 0 c51 -1 181 -2 288 -3 l195 -2 2 -65 c2
-36 5 -927 8 -1980 3 -1053 8 -1970 11 -2038 l6 -123 76 3 75 3 -2 1765 c-1
971 -4 1901 -7 2067 -3 166 -3 311 1 323 13 42 64 52 250 50 93 -1 205 -2 248
-1 l78 1 -3 78 -3 77 -150 7 c-82 3 -157 6 -165 6 -8 0 -69 -1 -135 -1 l-120
-2 -3 91 c-2 70 1 94 12 103 10 9 64 11 198 7 234 -6 214 -6 346 0 l113 5 -3
77 -3 77 -330 5 -330 5 -3 118 -3 117 -79 0 -79 0 -3 -117z"/>
<path d="M8888 8388 l-3 -133 -372 -3 -373 -2 0 -79 0 -78 98 -8 c53 -5 126
-8 162 -7 36 2 160 4 275 5 l210 2 0 -110 0 -110 -335 -5 -335 -5 -3 -77 -3
-78 93 -2 c51 -2 190 -3 308 -3 l215 0 -1 -25 c-1 -14 -7 -38 -13 -55 -6 -16
-36 -102 -67 -190 -73 -206 -237 -551 -420 -882 l-145 -261 -260 -224 -259
-223 -238 -132 c-130 -73 -244 -132 -252 -132 -8 -1 -543 527 -1188 1172
-1048 1048 -1172 1175 -1172 1203 0 44 -38 78 -82 72 -24 -3 -371 -234 -1229
-820 l-1195 -817 -1137 -972 c-633 -540 -1144 -984 -1153 -1001 -14 -27 -13
-31 7 -59 27 -39 60 -52 96 -38 16 6 70 37 121 71 51 33 99 57 106 55 22 -9
30 -810 21 -2067 -4 -608 -7 -1120 -7 -1139 1 -20 9 -42 20 -53 12 -12 203
-75 528 -172 2581 -779 3242 -979 3261 -992 39 -25 70 -17 114 28 22 24 608
518 1301 1098 694 580 1270 1067 1281 1081 19 26 19 50 9 1459 -6 788 -8 1437
-6 1444 3 6 71 67 150 136 195 168 196 170 196 220 -1 48 -14 39 273 196 l199
109 269 231 268 231 136 244 c174 312 368 714 432 896 61 172 84 222 97 202 4
-8 11 -943 15 -2079 4 -1136 8 -2125 8 -2197 l1 -133 82 0 81 0 -6 903 c-10
1391 -12 3591 -2 3606 6 11 51 13 242 7 128 -4 276 -4 328 0 l95 7 0 78 0 79
-335 0 c-301 0 -336 2 -342 16 -3 9 -1 26 6 36 10 15 10 27 1 48 -6 15 -10 49
-8 76 l3 49 155 -2 c85 -1 189 -2 230 -3 41 0 148 2 238 5 l162 6 0 80 0 79
-383 0 c-285 0 -386 3 -395 12 -8 8 -12 53 -12 135 l0 123 -80 0 -79 0 -3
-132z"/>
<path d="M11235 7982 l-30 -17 32 -3 c34 -3 73 12 73 28 0 16 -42 11 -75 -8z"/>
<path d="M9765 7981 c-10 -17 15 -23 135 -33 121 -11 182 -6 163 13 -20 20
-287 37 -298 20z"/>
</g>
</svg>
