<?xml version="1.0" encoding="UTF-8"?>
<svg width="1280px" height="740px" viewBox="0 0 1280 740" version="1.1" xmlns="http://www.w3.org/2000/svg" xmlns:xlink="http://www.w3.org/1999/xlink">
    <!-- Generator: Sketch 52.5 (67469) - http://www.bohemiancoding.com/sketch -->
    <title>About Copy</title>
    <desc>Created with Sketch.</desc>
    <defs>
        <linearGradient x1="32.1852157%" y1="115.094265%" x2="68.6750263%" y2="15.9017282%" id="linearGradient-1">
            <stop stop-color="#8ED0B8" stop-opacity="0.2" offset="0%"></stop>
            <stop stop-color="#47ABC5" stop-opacity="0.08" offset="40%"></stop>
            <stop stop-color="#1793CE" stop-opacity="0" offset="75%"></stop>
            <stop stop-color="#4BB2E1" stop-opacity="0" offset="96%"></stop>
            <stop stop-color="#87D6F7" stop-opacity="0" offset="100%"></stop>
        </linearGradient>
        <linearGradient x1="-949.260774%" y1="95.7079343%" x2="-1053.91633%" y2="-2.83857729%" id="linearGradient-2">
            <stop stop-color="#8ED0B8" stop-opacity="0.2" offset="0%"></stop>
            <stop stop-color="#47ABC5" stop-opacity="0.08" offset="40%"></stop>
            <stop stop-color="#1793CE" stop-opacity="0" offset="75%"></stop>
            <stop stop-color="#4BB2E1" stop-opacity="0" offset="96%"></stop>
            <stop stop-color="#87D6F7" stop-opacity="0" offset="100%"></stop>
        </linearGradient>
        <linearGradient x1="0.222269343%" y1="115.069111%" x2="-36.2624502%" y2="15.9280968%" id="linearGradient-3">
            <stop stop-color="#8ED0B8" stop-opacity="0.2" offset="0%"></stop>
            <stop stop-color="#47ABC5" stop-opacity="0.08" offset="40%"></stop>
            <stop stop-color="#1793CE" stop-opacity="0" offset="75%"></stop>
            <stop stop-color="#4BB2E1" stop-opacity="0" offset="96%"></stop>
            <stop stop-color="#87D6F7" stop-opacity="0" offset="100%"></stop>
        </linearGradient>
        <linearGradient x1="20.6006889%" y1="20.4835366%" x2="79.3970616%" y2="112.781501%" id="linearGradient-4">
            <stop stop-color="#8ED0B8" stop-opacity="0.2" offset="0%"></stop>
            <stop stop-color="#47ABC5" stop-opacity="0.08" offset="40%"></stop>
            <stop stop-color="#1793CE" stop-opacity="0" offset="75%"></stop>
            <stop stop-color="#4BB2E1" stop-opacity="0" offset="96%"></stop>
            <stop stop-color="#87D6F7" stop-opacity="0" offset="100%"></stop>
        </linearGradient>
        <linearGradient x1="-13.1230284%" y1="7.16735254%" x2="128.769716%" y2="84.2935528%" id="linearGradient-5">
            <stop stop-color="#8ED0B8" stop-opacity="0.2" offset="0%"></stop>
            <stop stop-color="#47ABC5" stop-opacity="0.08" offset="40%"></stop>
            <stop stop-color="#1793CE" stop-opacity="0" offset="75%"></stop>
            <stop stop-color="#4BB2E1" stop-opacity="0" offset="96%"></stop>
            <stop stop-color="#87D6F7" stop-opacity="0" offset="100%"></stop>
        </linearGradient>
        <linearGradient x1="20.5964955%" y1="20.5343378%" x2="79.3981149%" y2="112.800227%" id="linearGradient-6">
            <stop stop-color="#8ED0B8" stop-opacity="0.2" offset="0%"></stop>
            <stop stop-color="#47ABC5" stop-opacity="0.08" offset="40%"></stop>
            <stop stop-color="#1793CE" stop-opacity="0" offset="75%"></stop>
            <stop stop-color="#4BB2E1" stop-opacity="0" offset="96%"></stop>
            <stop stop-color="#87D6F7" stop-opacity="0" offset="100%"></stop>
        </linearGradient>
        <linearGradient x1="50%" y1="0%" x2="50%" y2="99.9956038%" id="linearGradient-7">
            <stop stop-color="#8ED0B8" stop-opacity="0.5" offset="0%"></stop>
            <stop stop-color="#1793CE" stop-opacity="0" offset="55%"></stop>
            <stop stop-color="#87D6F7" stop-opacity="0" offset="100%"></stop>
        </linearGradient>
        <linearGradient x1="20.6019427%" y1="20.5270109%" x2="79.4007819%" y2="112.79672%" id="linearGradient-8">
            <stop stop-color="#8ED0B8" stop-opacity="0.2" offset="0%"></stop>
            <stop stop-color="#47ABC5" stop-opacity="0.08" offset="40%"></stop>
            <stop stop-color="#1793CE" stop-opacity="0" offset="75%"></stop>
            <stop stop-color="#4BB2E1" stop-opacity="0" offset="96%"></stop>
            <stop stop-color="#87D6F7" stop-opacity="0" offset="100%"></stop>
        </linearGradient>
        <linearGradient x1="-13.1023024%" y1="7.12625871%" x2="128.839307%" y2="84.3273948%" id="linearGradient-9">
            <stop stop-color="#8ED0B8" stop-opacity="0.2" offset="0%"></stop>
            <stop stop-color="#47ABC5" stop-opacity="0.08" offset="40%"></stop>
            <stop stop-color="#1793CE" stop-opacity="0" offset="75%"></stop>
            <stop stop-color="#4BB2E1" stop-opacity="0" offset="96%"></stop>
            <stop stop-color="#87D6F7" stop-opacity="0" offset="100%"></stop>
        </linearGradient>
        <linearGradient x1="20.5999947%" y1="20.5270109%" x2="79.4091255%" y2="112.79672%" id="linearGradient-10">
            <stop stop-color="#8ED0B8" stop-opacity="0.2" offset="0%"></stop>
            <stop stop-color="#47ABC5" stop-opacity="0.08" offset="40%"></stop>
            <stop stop-color="#1793CE" stop-opacity="0" offset="75%"></stop>
            <stop stop-color="#4BB2E1" stop-opacity="0" offset="96%"></stop>
            <stop stop-color="#87D6F7" stop-opacity="0" offset="100%"></stop>
        </linearGradient>
        <linearGradient x1="-354.11518%" y1="20.5199742%" x2="-295.328531%" y2="112.793499%" id="linearGradient-11">
            <stop stop-color="#8ED0B8" stop-opacity="0.2" offset="0%"></stop>
            <stop stop-color="#47ABC5" stop-opacity="0.08" offset="40%"></stop>
            <stop stop-color="#1793CE" stop-opacity="0" offset="75%"></stop>
            <stop stop-color="#4BB2E1" stop-opacity="0" offset="96%"></stop>
            <stop stop-color="#87D6F7" stop-opacity="0" offset="100%"></stop>
        </linearGradient>
        <linearGradient x1="-3702.16119%" y1="7.19354049%" x2="-3560.24313%" y2="84.3161243%" id="linearGradient-12">
            <stop stop-color="#8ED0B8" stop-opacity="0.2" offset="0%"></stop>
            <stop stop-color="#47ABC5" stop-opacity="0.08" offset="40%"></stop>
            <stop stop-color="#1793CE" stop-opacity="0" offset="75%"></stop>
            <stop stop-color="#4BB2E1" stop-opacity="0" offset="96%"></stop>
            <stop stop-color="#87D6F7" stop-opacity="0" offset="100%"></stop>
        </linearGradient>
        <linearGradient x1="-354.216352%" y1="20.5394524%" x2="-295.413197%" y2="112.75201%" id="linearGradient-13">
            <stop stop-color="#8ED0B8" stop-opacity="0.2" offset="0%"></stop>
            <stop stop-color="#47ABC5" stop-opacity="0.08" offset="40%"></stop>
            <stop stop-color="#1793CE" stop-opacity="0" offset="75%"></stop>
            <stop stop-color="#4BB2E1" stop-opacity="0" offset="96%"></stop>
            <stop stop-color="#87D6F7" stop-opacity="0" offset="100%"></stop>
        </linearGradient>
        <linearGradient x1="49.9994518%" y1="0.000291122992%" x2="49.9994518%" y2="100.017651%" id="linearGradient-14">
            <stop stop-color="#8ED0B8" stop-opacity="0.5" offset="0%"></stop>
            <stop stop-color="#1793CE" stop-opacity="0" offset="55%"></stop>
            <stop stop-color="#87D6F7" stop-opacity="0" offset="100%"></stop>
        </linearGradient>
    </defs>
    <g id="0123" stroke="none" stroke-width="1" fill="none" fill-rule="evenodd">
        <g id="33333-05-copy" transform="translate(118.000000, 209.000000)">
            <path d="M669.86,396.5 C669.86,396.5 683.86,427.5 687.86,430.5 C691.86,433.5 728.86,434.5 735.86,433.5 C742.86,432.5 759.12,415.82 760.49,398.66 C761.86,381.5 760.12,398.82 760.49,398.66 C760.86,398.5 669.86,396.5 669.86,396.5 Z" id="Path" fill="#808080" opacity="0.1"></path>
            <path d="M538,206.93 C537.999578,200.25384 539.160203,193.628465 541.43,187.35 L541.6,186.94 C542.11,185.55 542.66,184.18 543.28,182.85 L544.17,181.14 L544.1,181.14 C553.88903,161.579875 573.887104,149.227213 595.76,149.23 C595.772669,122.417991 614.231515,99.1385729 640.334753,93.0144434 C666.43799,86.8903139 693.324178,99.5312488 705.26,123.54 C715.385759,120.060224 726.490747,120.843457 736.027838,125.710051 C745.564929,130.576644 752.715702,139.108975 755.84,149.35 C764.790932,149.921173 773.483394,152.58234 781.22,157.12 C782.55,157.9 783.85,158.72 785.11,159.6 L784.9,159.6 L787.43,161.31 C808.945717,178.004005 815.890067,207.45188 804.1,232 L803.61,232.91 L803.67,232.91 C803.07,234.103333 802.426667,235.273333 801.74,236.42 C791.77301,253.231187 773.977264,263.858209 754.45,264.66 L733.38,264.66 L721.32,264.66 L719.61,264.66 L706.61,264.66 L704.9,264.66 L595.48,264.66 C576.241934,264.583864 558.307731,254.922947 547.66,238.9 L546.84,237.2 L546.57,237.2 C544.397922,233.68561 542.610936,229.947357 541.24,226.05 L541.49,226.05 L540.67,224.34 C538.894569,218.707434 537.994087,212.835753 538,206.93 Z" id="Path" fill="url(#linearGradient-1)"></path>
            <path d="M735.09,264.69 L735.09,226.07 L752.34,226.07 L739.21,206.21 L766.88,206.21 L766.88,240.88 L752.75,240.88 L752.75,264.67 L752.07,264.67 C750.95,264.67 749.84,264.67 748.74,264.57 L748.74,264.67 L735.09,264.67 L735.09,264.69 Z" id="Path" fill="url(#linearGradient-2)"></path>
            <path d="M590.42,238.6 L590.42,219.13 L618.33,219.13 L618.33,245 L666.46,245 L666.46,243.29 L620,243.29 L620,217.42 L588.71,217.42 L588.71,236.9 L546.56,237.22 C544.387922,233.70561 542.600936,229.967357 541.23,226.07 L567.06,226.07 L567.06,202.71 L644.25,201.39 L644.25,199.68 L565.36,201 L565.36,224.34 L540.67,224.34 C536.347292,210.638372 537.270367,195.819277 543.26,182.76 L613.2,182.76 L613.2,156.54 C615.251831,156.102499 616.642365,154.186664 616.422403,152.100271 C616.20244,150.013878 614.442956,148.43014 612.345,148.43014 C610.247044,148.43014 608.48756,150.013878 608.267597,152.100271 C608.047635,154.186664 609.438169,156.102499 611.49,156.54 L611.49,181.08 L544.08,181.08 C553.86903,161.519875 573.867104,149.167213 595.74,149.17 C595.752669,122.357991 614.211515,99.0785729 640.314753,92.9544434 C666.41799,86.8303139 693.304178,99.4712488 705.24,123.48 C715.365759,120.000224 726.470747,120.783457 736.007838,125.650051 C745.544929,130.516644 752.695702,139.048975 755.82,149.29 C766.331922,149.958325 776.457687,153.504245 785.09,159.54 L714.28,159.54 L697.38,137.33 L731.54,137.33 L731.54,135.62 L693.94,135.62 L713.44,161.25 L787.44,161.25 C808.982112,177.954112 815.925052,207.438687 804.1,232 L766.77,180.58 C767.827667,179.361238 768.020565,177.615067 767.254426,176.194831 C766.488287,174.774594 764.923076,173.976826 763.3237,174.191391 C761.724324,174.405955 760.424722,175.588053 760.06,177.16 L688.63,177.16 L635.8,109.04 L634.45,110.04 L687.8,178.9 L760.07,178.9 C760.320745,180.030197 761.063069,180.989389 762.094236,181.515614 C763.125404,182.041838 764.337686,182.080119 765.4,181.62 L803,233.39 L803.69,232.89 C794.264009,251.619524 775.429696,263.771311 754.48,264.64 L754.48,242.64 L768.6,242.64 L768.6,204.5 L736,204.5 L749.13,224.36 L733.38,224.36 L733.38,264.68 L721.32,264.68 L721.32,200.53 L719.61,200.53 L719.61,264.69 L706.61,264.69 L706.61,193 L671.44,193 L619.87,123.86 L618.5,124.86 L670.59,194.69 L704.9,194.69 L704.9,264.63 L685,264.63 L685,218.13 C687.051831,217.692499 688.442365,215.776664 688.222403,213.690271 C688.00244,211.603878 686.242956,210.02014 684.145,210.02014 C682.047044,210.02014 680.28756,211.603878 680.067597,213.690271 C679.847635,215.776664 681.238169,217.692499 683.29,218.13 L683.29,264.63 L595.48,264.63 C576.241934,264.553864 558.307731,254.892947 547.66,238.87 L590.42,238.6 Z" id="Path" fill="url(#linearGradient-3)"></path>
            <path d="M592.59,235.47 C592.590368,232.142113 592.01174,228.839536 590.88,225.71 L590.8,225.5 C590.54,224.81 590.27,224.13 589.96,223.5 L589.52,222.65 C584.642592,212.903887 574.678432,206.74887 563.78,206.75 C563.772473,193.388547 554.57297,181.788228 541.564578,178.736965 C528.556185,175.685702 515.158014,181.985485 509.21,193.95 C504.171693,192.2124 498.64395,192.593621 493.891875,195.006416 C489.1398,197.419211 485.57019,201.657034 484,206.75 C479.538837,207.033677 475.206283,208.359131 471.35,210.62 C470.69,211.01 470.04,211.42 469.41,211.86 L469.52,211.86 L468.26,212.71 C457.522081,221.049081 454.07846,235.761595 460,248 L460.24,248.45 C460.54,249.043333 460.873333,249.626667 461.24,250.2 C466.206574,258.574495 475.071791,263.868791 484.8,264.27 L495.3,264.27 L501.3,264.27 L502.15,264.27 L564.01,264.27 C573.595472,264.23333 582.53218,259.421834 587.84,251.44 L588.25,250.59 L588.39,250.59 C589.458668,248.826041 590.33374,246.951845 591,245 L590.88,245 L591.29,244.15 C592.164867,241.340217 592.603304,238.412804 592.59,235.47 Z" id="Path" fill="url(#linearGradient-4)"></path>
            <path d="M494.37,264.26 L494.37,245 L485.77,245 L492.31,235.1 L478.52,235.1 L478.52,252.38 L485.52,252.38 L485.52,264.24 L485.86,264.24 C486.42,264.24 486.97,264.24 487.52,264.24 L494.32,264.24 L494.37,264.26 Z" id="Path" fill="url(#linearGradient-5)"></path>
            <path d="M566.46,251.26 L566.46,241.56 L552.55,241.56 L552.55,254.47 L528.55,254.47 L528.55,253.62 L551.7,253.62 L551.7,240.7 L567.31,240.7 L567.31,250.41 L588.31,250.57 C589.404985,248.815815 590.306903,246.948275 591,245 L578.09,245 L578.09,233.37 L539.62,232.71 L539.62,231.86 L578.92,232.53 L578.92,244.16 L591.22,244.16 C593.395993,237.34091 592.961203,229.956611 590,223.44 L555.1,223.44 L555.1,210.37 C554.101495,210.152858 553.427256,209.217946 553.536452,208.201954 C553.645648,207.185962 554.503157,206.415678 555.525,206.415678 C556.546843,206.415678 557.404352,207.185962 557.513548,208.201954 C557.622744,209.217946 556.948505,210.152858 555.95,210.37 L555.95,222.6 L589.54,222.6 C584.662592,212.853887 574.698432,206.69887 563.8,206.7 C563.792473,193.338547 554.59297,181.738228 541.584578,178.686965 C528.576185,175.635702 515.178014,181.935485 509.23,193.9 C504.182525,192.157958 498.643718,192.542804 493.885661,194.96615 C489.127604,197.389497 485.559202,201.643083 484,206.75 C478.763456,207.084571 473.719671,208.852317 469.42,211.86 L504.71,211.86 L513.13,200.79 L496.13,200.79 L496.13,199.94 L514.87,199.94 L505.15,212.71 L468.29,212.71 C457.541477,221.040807 454.085013,235.754756 460,248 L478.6,222.38 C478.054494,221.773685 477.946464,220.890923 478.329662,220.170955 C478.71286,219.450987 479.505449,219.047574 480.313055,219.161443 C481.120662,219.275313 481.770809,219.882147 481.94,220.68 L517.54,220.68 L543.86,186.74 L544.53,187.26 L517.95,221.53 L481.95,221.53 C481.821255,222.089314 481.451459,222.562914 480.940055,222.823441 C480.428651,223.083967 479.828137,223.104677 479.3,222.88 L460.57,248.68 L460.23,248.43 C464.925899,257.76312 474.311024,263.818287 484.75,264.25 L484.75,253.25 L477.75,253.25 L477.75,234.25 L493.97,234.25 L487.43,244.15 L495.3,244.15 L495.3,264.24 L501.3,264.24 L501.3,232.24 L502.15,232.24 L502.15,264.24 L508.63,264.24 L508.63,228.54 L526.16,228.54 L551.86,194.08 L552.54,194.59 L526.54,229.39 L509.44,229.39 L509.44,264.24 L519.37,264.24 L519.37,241.08 C518.371495,240.862858 517.697256,239.927946 517.806452,238.911954 C517.915648,237.895962 518.773157,237.125678 519.795,237.125678 C520.816843,237.125678 521.674352,237.895962 521.783548,238.911954 C521.892744,239.927946 521.218505,240.862858 520.22,241.08 L520.22,264.25 L563.96,264.25 C573.545472,264.21333 582.48218,259.401834 587.79,251.42 L566.46,251.26 Z" id="Path" fill="url(#linearGradient-6)"></path>
            <path d="M617.91,293.71 C617.91,293.71 612.91,274.86 612.14,270 C611.37,265.14 598.75,231.59 590.36,224.56 L591.31,256.89 L598.25,297.6 L601.86,303.6 L604,311 L620.04272,302 L617.91,293.71 Z" id="Shape" fill="#F1F1F1"></path>
            <path d="M599.37,291.54 C598.27,269.74 598.46,241.41 594.99,232.84 C593.230417,228.262187 590.006379,224.394747 585.82,221.84 C581.04,219.14 575.52,221.52 570.6,222.59 C565.83,223.59 560.96,225.9 556.53,227.91 C551.53,230.18 546.05,231.81 541.33,234.55 C536.77,237.2 532.33,240.03 527.87,242.89 C513.14,252.4 513.44,260.89 518.03,281.56 C522.62,302.23 523.26,378.56 523.26,378.56 C546.78,395.64 574.58,389.16 574.58,389.16 C574.58,389.16 593.1,386 600.08,377 C600.08,377 600.46,313.34 599.37,291.54 Z" id="Path" fill="#FFFFFF"></path>
            <path d="M524.56,335.86 C519.21,330.34 515.02,325.48 514.77,323.55 C514.07,318.03 512.95,290.04 513.3,274.07 C513.65,258.1 516.89,248.53 524.13,248.37 C537.87,248.08 538.23,262.37 537.5,283.66 C536.77,304.95 536.42,313.79 536.42,313.79 L542.5,323.85" id="Path" fill="#F5C5AB"></path>
            <path d="M518.91,250.61 C521.07,245.92 530.09,246.61 534.06,250.25 C538.03,253.89 539.06,266.66 539.83,289.38 C540.6,312.1 541.09,313.91 541.09,313.91 L543.25,320.04 C543.25,320.04 525.58,334.83 522.69,335.55 C519.8,336.27 513.85,322.48 513.85,322.48 C513.85,322.48 512.63,286.73 513.58,267.66 C514.25,254.32 518.91,250.61 518.91,250.61 Z" id="Path" fill="#F1F1F1"></path>
            <polygon id="Path" fill="#000000" points="578.67 249.4 579.73 249.62 578.67 249.39"></polygon>
            <path d="M578.31,224.12 C577.05,223.77 574.31,223.12 572.73,222.57 C573.99,223.39 572.57,221.95 573.58,223.06 C577.99,227.93 579.15,234.79 579.35,239.69 C579.480922,242.941408 579.256256,246.197388 578.68,249.4 L579.73,249.62 L580.78,249.84 C581.397747,246.483991 581.63924,243.069549 581.5,239.66 C581.21,232.19 582.07,228.36 578.31,224.12 Z" id="Path" fill="#000000"></path>
            <circle id="Oval" fill="#E4E4E4" transform="translate(579.895993, 249.645300) rotate(-6.100000) translate(-579.895993, -249.645300) " cx="579.895993" cy="249.6453" r="6.55"></circle>
            <path d="M580.67,256.57 C576.830775,256.965806 573.395571,254.179406 572.990749,250.341121 C572.585926,246.502836 575.364251,243.061098 579.201575,242.647262 C583.038898,242.233426 586.487153,245.003659 586.91,248.84 C587.114333,250.693836 586.570412,252.552563 585.398918,254.00379 C584.227423,255.455016 582.525229,256.378734 580.67,256.57 Z M579.28,243.57 C576.834596,243.830645 574.787024,245.538771 574.092146,247.897813 C573.397268,250.256856 574.191942,252.802192 576.105582,254.346834 C578.019222,255.891477 580.674929,256.131201 582.834244,254.954215 C584.993559,253.777229 586.231197,251.415345 585.97,248.97 C585.803674,247.360577 585.003731,245.883497 583.746721,244.864755 C582.48971,243.846014 580.878972,243.369363 579.27,243.54 L579.28,243.57 Z" id="Shape" fill="#000000" fill-rule="nonzero"></path>
            <circle id="Oval" fill="#B2B1B2" transform="translate(579.895993, 249.645300) rotate(-6.100000) translate(-579.895993, -249.645300) " cx="579.895993" cy="249.6453" r="4.74"></circle>
            <path d="M541.8,244.92 C542.116354,247.094874 542.704277,249.221476 543.55,251.25 L545.34,250.44 C545.34,250.34 543.47,241.29 547.92,233.31 C548.6,232.09 547.04,231.52 548.05,230.49 C546.28693,231.760925 544.439318,232.910253 542.52,233.93 C540.48,237.61 541.06,240 541.8,244.92 Z" id="Path" fill="#000000"></path>
            <path d="M549.88,289.34 C545.13,289.71 544.17,286.76 544.13,286.63 L538.46,268.1 L539.87,267.67 L545.54,286.2 C545.54,286.27 546.25,288.15 549.77,287.87 L549.88,289.34 Z" id="Path" fill="#B2B1B2"></path>
            <path d="M560.44,285.15 C564.59,282.8 563.73,279.81 563.69,279.69 L558,261.16 L556.59,261.59 L562.26,280.12 C562.26,280.19 562.76,282.12 559.69,283.87 L560.44,285.15 Z" id="Path" fill="#B2B1B2"></path>
            <ellipse id="Oval" fill="#292728" transform="translate(550.682996, 288.515831) rotate(-86.280000) translate(-550.682996, -288.515831) " cx="550.682996" cy="288.515831" rx="1.67" ry="2.58"></ellipse>
            <ellipse id="Oval" fill="#292728" transform="translate(559.412968, 285.895733) rotate(-37.740000) translate(-559.412968, -285.895733) " cx="559.412968" cy="285.895733" rx="2.58" ry="1.67"></ellipse>
            <path d="M538.13,268.68 C537.34891,265.946183 536.925384,263.122672 536.87,260.28 C536.87,254.22 539.06,250.28 543.35,249.02 C553.5,245.91 558.43,261.62 558.64,262.29 L556.53,262.94 C556.53,262.8 552.05,248.67 544,251.14 C540.7,252.14 539,255.22 539.09,260.27 C539.149711,262.899068 539.542852,265.509928 540.26,268.04 L538.13,268.68 Z" id="Path" fill="#292728"></path>
            <path d="M547.77,216.41 C549.3,220.11 546.84,229.91 547.92,233.31 C549,236.71 558.97,245.84 567.82,242.46 C576.67,239.08 576.43,233.17 575.76,224.82 C575.09,216.47 547.77,216.41 547.77,216.41 Z" id="Path" fill="#F2C4AF"></path>
            <path d="M580.56,185.18 C580.733333,185.433333 580.9,185.693333 581.06,185.96 C582.35487,187.998316 583.187707,190.295445 583.5,192.69 C583.79,195.13 583.23,197.54 583.31,199.99 C583.37,201.61 584.62,203.2 584.85,206.72 C585.08,210.24 582.85,228.1 572.85,229.53 C562.85,230.96 556.32,225.17 553.56,222.8 C550.8,220.43 544.08,211.95 544.08,211.95 C544.08,211.95 538.15,202.09 536.79,196.44 C535.953112,192.140849 536.252999,187.697701 537.66,183.55 C538.104634,181.720414 539.002147,180.031989 540.27,178.64 C542.11,176.95 544.8,176.95 547,175.99 C548.64,175.27 549.31,173.4 551.11,172.67 C553.37,171.75 557.19,172.21 559.53,172.62 C567.66,174 575.85,178.25 580.56,185.18 Z" id="Path" fill="#FBD9C4"></path>
            <path d="M581.7,182.7 C581.32,180.49 573.86,167.7 552.26,171.09 C550.625152,171.265719 549.091577,171.967584 547.89,173.09 C547.45,173.6 546.71,176.19 546.33,176.3 L541.9,177.63 C537.47,178.96 535.47,190.78 536.83,196.43 C538.19,202.08 544.12,211.94 544.12,211.94 C544.12,211.94 545.23,213.34 546.72,215.15 C543.99,210.66 542.81,202.91 547.3,204.01 C551.79,205.11 551.91,209.85 551.91,209.85 L553.86,209.85 C553.86,209.85 553.93,204.03 553.68,202.41 C553.29,199.8 556.75,197.89 556.45,195.12 C556.206068,194.171853 555.912327,193.237223 555.57,192.32 C554.88,189.16 557.7,190.67 559.57,190.9 C562.051549,191.163555 564.555531,191.133346 567.03,190.81 L567.73,190.71 C572.896372,193.954699 578.630899,196.190825 584.63,197.3 C584.63,197.3 584.94,188.16 581.7,182.7 Z" id="Path" fill="#333333"></path>
            <path d="M0.86,254.5 L52.86,254.5 L52.86,210.5 L113.86,210.5 L113.86,351.5 L134.86,351.5 L134.86,200.5 L161.86,200.5 L161.86,182.5 L176.86,182.5 L176.86,197.5 L211.86,197.5 L211.86,392.5 L222.86,392.5 L222.86,313.5 L255.86,313.5 L255.86,232.5 L301.86,232.5 L301.86,242.5 L345.86,242.5 L345.86,307.5 L424.86,307.5 L424.86,378.5 L486.86,378.5 L486.86,427.8 C486.86,427.8 454.47,475.47 365.16,473 C275.85,470.53 157.86,466.5 0.86,348.5 L0.86,254.5 Z" id="Path" fill="url(#linearGradient-7)"></path>
            <path d="M1031.22,153.49 C1031.22291,144.642179 1029.68667,135.861289 1026.68,127.54 L1026.68,127.47 L1026.46,126.92 C1025.78,125.08 1025.05,123.27 1024.24,121.5 L1023.06,119.24 L1023.15,119.24 C1010.17024,93.3365345 983.673497,76.9855865 954.7,77 C954.68814,41.4701911 930.224534,10.6212219 895.631965,2.5143337 C861.039396,-5.59255452 825.416697,11.1749812 809.62,43 C796.205531,38.3929623 781.495032,39.4329115 768.862123,45.8813518 C756.229214,52.3297921 746.7578,63.6334459 742.62,77.2 C730.768844,77.9335867 719.254437,81.433802 709,87.42 C707.24,88.42 705.52,89.54 703.85,90.71 L704.13,90.71 L700.75,93 C672.182873,115.128029 662.970994,154.213907 678.65,186.77 L679.3,187.97 L679.22,187.91 C680.02,189.49 680.87,191.04 681.77,192.56 C694.976124,214.829374 718.551176,228.906671 744.42,229.97 L772.34,229.97 L772.34,230 L788.34,230 L790.6,230 L807.82,230 L810.08,230 L955.08,230 C980.567598,229.901163 1004.32921,217.105294 1018.44,195.88 L1019.52,193.62 L1019.88,193.62 C1022.75697,188.964514 1025.12396,184.012604 1026.94,178.85 L1026.61,178.85 L1027.7,176.59 C1030.04978,169.115791 1031.23697,161.324857 1031.22,153.49 Z" id="Path" fill="url(#linearGradient-8)"></path>
            <path d="M770.08,230 L770.08,178.86 L747.22,178.86 L764.62,152.54 L727.95,152.54 L727.95,198.48 L746.68,198.48 L746.68,230 L747.59,230 C749.07,230 750.59,230 752,229.87 L752,230 L770.08,230 Z" id="Path" fill="url(#linearGradient-9)"></path>
            <path d="M961.75,195.45 L961.75,169.65 L924.75,169.65 L924.75,204 L861,204 L861,201.74 L922.5,201.74 L922.5,167.39 L964,167.39 L964,193.2 L1019.84,193.63 C1022.71697,188.974514 1025.08396,184.022604 1026.9,178.86 L992.68,178.86 L992.68,147.86 L890.41,146.11 L890.41,143.85 L994.91,145.64 L994.91,176.56 L1027.62,176.56 C1033.34793,158.406712 1032.12548,138.77258 1024.19,121.47 L931.52,121.47 L931.52,86.73 C928.801868,86.1516871 926.95905,83.614482 927.249802,80.8507616 C927.540554,78.0870411 929.871028,75.9888796 932.65,75.9888796 C935.428972,75.9888796 937.759446,78.0870411 938.050198,80.8507616 C938.34095,83.614482 936.498132,86.1516871 933.78,86.73 L933.78,119.24 L1023.09,119.24 C1010.11992,93.3558587 983.651886,77.0082975 954.7,77 C954.68814,41.4701911 930.224534,10.6212219 895.631965,2.5143337 C861.039396,-5.59255452 825.416697,11.1749812 809.62,43 C796.205531,38.3929623 781.495032,39.4329115 768.862123,45.8813518 C756.229214,52.3297921 746.7578,63.6334459 742.62,77.2 C728.692692,78.0852502 715.276973,82.7831734 703.84,90.78 L797.66,90.78 L820,61.27 L774.77,61.27 L774.77,59 L824.6,59 L798.77,93 L700.77,93 C672.202873,115.128029 662.990994,154.213907 678.67,186.77 L728.13,118.65 C726.698852,117.037989 726.423091,114.705215 727.438928,112.803942 C728.454764,110.902669 730.547236,109.835226 732.682777,110.12887 C734.818318,110.422515 736.545026,112.01511 737.01,114.12 L831.65,114.12 L901.65,23.87 L903.44,25.26 L832.77,116.39 L737,116.39 C736.663725,117.884384 735.679693,119.151527 734.315107,119.847349 C732.950522,120.543172 731.347014,120.595455 729.94,119.99 L680.14,188.58 L679.22,187.91 C691.708727,212.724493 716.663718,228.822759 744.42,229.97 L744.42,200.77 L725.69,200.77 L725.69,150.28 L768.83,150.28 L751.43,176.6 L772.34,176.6 L772.34,230 L788.34,230 L788.34,145 L790.6,145 L790.6,230 L807.82,230 L807.82,135.09 L854.42,135.09 L922.75,43.48 L924.56,44.83 L855.56,137.35 L810.07,137.35 L810.07,230 L836.48,230 L836.48,168.4 C833.761868,167.821687 831.91905,165.284482 832.209802,162.520762 C832.500554,159.757041 834.831028,157.65888 837.61,157.65888 C840.388972,157.65888 842.719446,159.757041 843.010198,162.520762 C843.30095,165.284482 841.458132,167.821687 838.74,168.4 L838.74,230 L955,230 C980.487598,229.901163 1004.24921,217.105294 1018.36,195.88 L961.75,195.45 Z" id="Path" fill="url(#linearGradient-10)"></path>
            <path d="M842.93,230.92 C842.927445,226.255916 843.736164,221.626929 845.32,217.24 L845.44,216.95 C845.8,215.95 846.18,215.02 846.61,214.09 L847.23,212.9 C854.067318,199.234268 868.039256,190.604883 883.32,190.61 C883.322319,171.876619 896.217864,155.608678 914.456318,151.331022 C932.694773,147.053367 951.478638,155.891205 959.81,172.67 C966.879063,170.2384 974.632519,170.781659 981.293429,174.175273 C987.954338,177.568887 992.951622,183.5219 995.14,190.67 C1001.39313,191.069569 1007.46555,192.929311 1012.87,196.1 C1013.8,196.64 1014.71,197.22 1015.58,197.83 L1015.43,197.83 L1017.2,199.02 C1032.26343,210.686098 1037.11985,231.295666 1028.85,248.46 L1028.51,249.09 C1028.09,249.923333 1027.64,250.74 1027.16,251.54 C1020.20207,263.270418 1007.78681,270.689479 994.16,271.26 L979.44,271.26 L971,271.26 L969.81,271.26 L960.73,271.26 L959.54,271.26 L883.08,271.26 C869.641917,271.203955 857.115909,264.453411 849.68,253.26 L849.11,252.07 L848.92,252.07 C847.403775,249.614499 846.156575,247.002754 845.2,244.28 L845.37,244.28 L844.8,243.09 C843.557282,239.152995 842.926597,235.04848 842.93,230.92 Z" id="Path" fill="url(#linearGradient-11)"></path>
            <path d="M980.6,271.26 L980.6,244.26 L992.65,244.26 L983.48,230.39 L1002.81,230.39 L1002.81,254.61 L992.93,254.61 L992.93,271.23 L992.45,271.23 C991.67,271.23 990.89,271.23 990.13,271.16 L990.13,271.23 L980.6,271.23 L980.6,271.26 Z" id="Path" fill="url(#linearGradient-12)"></path>
            <path d="M879.55,253 L879.55,239.4 L899,239.4 L899,257.5 L932.62,257.5 L932.62,256.31 L900.24,256.31 L900.24,238.21 L878.36,238.21 L878.36,251.82 L848.92,252.04 C847.403775,249.584499 846.156575,246.972754 845.2,244.25 L863.2,244.25 L863.2,228 L917.12,227.08 L917.12,225.89 L862,226.8 L862,243.1 L844.8,243.1 C841.791714,233.54268 842.436673,223.209088 846.61,214.1 L895.46,214.1 L895.46,195.72 C896.891702,195.415483 897.862411,194.079136 897.709313,192.623436 C897.556214,191.167736 896.328729,190.062577 894.865,190.062577 C893.401271,190.062577 892.173786,191.167736 892.020687,192.623436 C891.867589,194.079136 892.838298,195.415483 894.27,195.72 L894.27,212.86 L847.18,212.86 C854.017318,199.194268 867.989256,190.564883 883.27,190.57 C883.272319,171.836619 896.167864,155.568678 914.406318,151.291022 C932.644773,147.013367 951.428638,155.851205 959.76,172.63 C966.829063,170.1984 974.582519,170.741659 981.243429,174.135273 C987.904338,177.528887 992.901622,183.4819 995.09,190.63 C1002.43088,191.097762 1009.50187,193.574685 1015.53,197.79 L966.07,197.79 L954.27,182.27 L978.13,182.27 L978.13,181.08 L951.86,181.08 L965.48,198.98 L1017.15,198.98 C1032.21343,210.646098 1037.06985,231.255666 1028.8,248.42 L1002.73,212.51 C1003.47459,211.66032 1003.61394,210.437863 1003.07969,209.442402 C1002.54544,208.446941 1001.44968,207.887355 1000.33003,208.038194 C999.210377,208.189033 998.301771,209.018646 998.05,210.12 L948.15,210.12 L911.25,162.54 L910.31,163.27 L947.57,211.27 L998,211.27 C998.175262,212.058697 998.693287,212.728065 999.412805,213.095561 C1000.13232,213.463057 1000.97829,213.490351 1001.72,213.17 L1028,249.4 L1028.48,249.05 C1021.89317,262.132132 1008.7344,270.617588 994.1,271.22 L994.1,255.82 L1004,255.82 L1004,229.23 L981.26,229.23 L990.43,243.1 L979.43,243.1 L979.43,271.26 L971,271.26 L971,226.45 L969.81,226.45 L969.81,271.26 L960.73,271.26 L960.73,221.26 L936.16,221.26 L900.16,172.96 L899.16,173.67 L935.54,222.45 L959.54,222.45 L959.54,271.3 L945.62,271.3 L945.62,238.78 C947.051702,238.475483 948.022411,237.139136 947.869313,235.683436 C947.716214,234.227736 946.488729,233.122577 945.025,233.122577 C943.561271,233.122577 942.333786,234.227736 942.180687,235.683436 C942.027589,237.139136 942.998298,238.475483 944.43,238.78 L944.43,271.26 L883.08,271.26 C869.641917,271.203955 857.115909,264.453411 849.68,253.26 L879.55,253 Z" id="Path" fill="url(#linearGradient-13)"></path>
            <path d="M1061.92,351.15 C1044.49,330.05 1026.13,306.99 999.48,324.5 C972.83,342.01 916.48,411.3 902.02,414.35 C887.56,417.4 818.55,428.51 783.38,418.35 C783.38,418.35 814.46,431.62 853.29,458 C892.12,484.38 1053.96,494 1061.92,487.42 C1069.88,480.84 1126.43,427.35 1061.92,351.15 Z" id="Path" fill="url(#linearGradient-14)"></path>
            <polygon id="Path" fill="#A47C55" points="897.47 426.9 895.76 454.58 902.04 464.01 911.66 448.51"></polygon>
            <path d="M930.23,324.51 C930.23,324.51 923.65,326.75 910.02,348.8 C901.02,363.41 898.7,405.68 897.07,433.31 C896.07,449.95 914.46,438.42 923.43,437.47 C938.2,435.91 937.86,402.47 937.86,402.47 L930.23,324.51 Z" id="Path" fill="#989898"></path>
            <path d="M902.37,508 C902.37,508 911.21,356.65 913.14,351.25 C915.07,345.85 926.49,324.48 930.23,324.5 C933.550245,324.653084 936.857132,325.020516 940.13,325.6 L973.13,331.72 L989.84,331.01 L1003.61,345.62 L1009.01,447.94 L1010.24,535.94 L902.37,508 Z" id="Path" fill="#F1F1F1"></path>
            <polygon id="Path" fill="#F1F1F1" points="950.9 328.53 965.73 341.74 950.91 395.9 937.23 425.51 929.34 403.81 935.99 345.62"></polygon>
            <path d="M950.9,323.09 C950.9,323.09 950.61,337.49 950.04,337.85 C949.47,338.21 954.88,346.13 960.81,345.59 C966.74,345.05 979.69,323.47 979.69,323.47 L978.08,299.86 L968.63,305.44 C968.63,305.44 967.82,320.75 950.9,323.09 Z" id="Path" fill="#856446"></path>
            <path d="M950.9,328.53 C950.9,328.53 936.11,350.45 935.99,359.36 C935.87,368.27 935.99,430.25 935.99,430.25 C935.99,430.25 924.79,404.46 923.99,399.87 C923.19,395.28 923.72,359.36 923.99,358.55 C924.26,357.74 933.67,355.85 932.99,355.04 C932.31,354.23 925.59,347.21 925.59,347.21 L940.12,325.61 C940.12,325.61 951,325.26 950.9,328.53 Z" id="Path" fill="#989898"></path>
            <path d="M935,279.45 C935,279.45 935.54,318.34 946,321.04 C946,321.04 957.23,325.43 965.87,319.85 C972.14,315.85 973.26,310.44 973.4,307.85 C973.457001,306.818991 973.97945,305.869754 974.82,305.27 C977.46,303.36 982.56,298.92 980.39,294.44 C977.51,288.5 973.39,296.78 973.39,296.78 L969.88,287.6 C969.88,287.6 949.56,291.87 935,279.45 Z" id="Path" fill="#A47C55"></path>
            <path d="M955.44,255 C955.44,255 940.88,256.8 935.99,265.26 C931.1,273.72 932.71,280.92 937.3,283.98 C941.89,287.04 951.88,289.92 956.88,289.92 C961.88,289.92 970.6,289.74 970.6,289.74 L972.66,296.56 C972.66,296.56 977,291 979.16,295.14 C981.32,299.28 977.16,302.85 977.16,302.85 C979.699863,302.650482 981.962283,301.168597 983.16,298.92 C985.16,295.4 991.16,283.26 987.48,273.36 C983.72,263.33 978.71,256.48 955.44,255 Z" id="Path" fill="#000000"></path>
            <path d="M979.69,323.47 C979.69,323.47 960.98,346.4 958.55,353.69 C956.12,360.98 938,399.33 936,430.25 C936,430.25 972.89,374.25 971.26,371.78 C969.63,369.31 962.34,363.41 963.15,361.78 C963.96,360.15 975.57,361.24 976.65,359.89 C977.73,358.54 990.65,334.24 989.88,331 C989.11,327.76 979.69,323.47 979.69,323.47 Z" id="Path" fill="#989898"></path>
            <path d="M901,329 C901,329 915.05,318.92 908.41,310.75 C901.77,302.58 895.13,307.69 895.41,309.47 C895.69,311.25 891.07,323.66 892.09,324.86 C893.11,326.06 901,329 901,329 Z" id="Path" fill="#FBD9C4"></path>
            <path d="M814.83,432.4 C813.3,433.08 801.04,439.89 797.3,445.68 C793.56,451.47 807.85,369.09 807.85,369.09 L813.13,371.3 L814.83,432.4 Z" id="Path" fill="#808080"></path>
            <path d="M807.85,358.7 C807.85,358.7 807.85,403.86 820.62,444.19 C820.62,444.19 828.79,484.51 833.13,485.19 C837.47,485.87 850.22,487.45 848.19,478.74 C846.16,470.03 833.03,426.8 839.08,426.8 C845.13,426.8 854.32,471 854.32,471 C854.32,471 865,499 872.19,493.22 C879.38,487.44 865.55,409.35 865.55,409.35 L861,358.7 L807.9,358.7 L807.85,358.7 Z" id="Path" fill="#4D4D4D"></path>
            <path d="M725.13,324.81 L751.84,336.62 L756.28,342.42 C756.28,342.42 742.49,346.42 740.71,345.93 C738.93,345.44 725.14,335.39 725.14,335.39 L725.14,324.81 L725.13,324.81 Z" id="Path" fill="#4D4D4D"></path>
            <path d="M861,288.74 C861,288.74 827,275.1 817.19,281.16 C807.38,287.22 805.3,349 805.3,349 C805.3,349 804.41,381.59 851.14,365.62 L861,288.74 Z" id="Path" fill="#F1F1F1"></path>
            <path d="M850.23,264.74 C850.23,264.74 852.23,295.38 850.23,296.4 C848.23,297.42 826.77,300.63 824.23,288.74 C824.23,288.74 831.89,272.91 831.38,269.34 C830.87,265.77 850.23,264.74 850.23,264.74 Z" id="Path" fill="#F2C4AF"></path>
            <path d="M819.6,242.79 C819.6,242.79 811.43,276.49 825.22,278.53 C839.01,280.57 861,260.66 861,260.66 L852.83,242.79 L819.6,242.79 Z" id="Path" fill="#FBD9C4"></path>
            <path d="M853.3,236.15 C853.3,236.15 888.02,237.15 869.64,288.74 C869.64,288.74 852.72,281.68 850.46,268.87 C850.46,268.87 862.46,260.14 855.35,258.1 C848.24,256.06 846.67,258.61 846.67,253.5 C846.67,248.39 843.61,238.42 843.61,238.42 L853.3,236.15 Z" id="Path" fill="#41210E"></path>
            <path d="M854.32,230.53 C854.32,230.53 865.04,249.42 846.66,248.4 C828.28,247.38 822.45,242.27 817.19,246.4 C811.93,250.53 806.83,220.32 854.32,230.53 Z" id="Path" fill="#5F3817"></path>
            <path d="M851.14,271.47 C851.14,271.47 867.14,292.83 875,293.85 L886.48,335.21 L891.08,322.44 C891.08,322.44 899.76,330.1 904.36,329.59 C908.96,329.08 892.11,367.89 883.42,362.27 C874.73,356.65 868.61,342.36 868.61,338.78 C868.61,335.2 882.91,431.89 887.5,447.63 C892.09,463.37 861,459.29 861,459.29 C861,459.29 842.06,343.38 850.23,296.4 L851.14,271.47 Z" id="Path" fill="#B2B2B2"></path>
            <path d="M825.21,278.53 C825.21,278.53 816.9,293.34 813.91,303.04 C810.92,312.74 812.82,327.04 813.91,329.59 C815,332.14 817.77,359.21 812.3,362.78 C806.83,366.35 799.68,441.41 799.68,444.48 C799.68,447.55 789.47,451.63 791.51,439.37 C793.55,427.11 798.15,375.54 803.76,352.06 C803.76,352.06 768.53,357.17 767.51,354.61 C766.49,352.05 767.51,336.74 767.51,336.74 L792,335.21 C792,335.21 799.66,284.3 803.23,281.16 C806.8,278.02 825.21,278.53 825.21,278.53 Z" id="Path" fill="#B2B2B2"></path>
            <path d="M767.06,339.81 C767.06,339.81 750.66,331.13 746.58,332.15 C742.5,333.17 757.81,337.77 753.22,339.81 C748.63,341.85 741.48,346.96 738.41,339.81 C735.34,332.66 725.64,334.19 729.73,340.81 C733.82,347.43 746.73,356.64 767.06,351.02 L767.06,339.81 Z" id="Path" fill="#FBD9C4"></path>
            <path d="M842.15,471.18 C842.15,471.18 835.94,410.27 833.15,414.87 C830.36,419.47 837.54,471.18 837.54,471.18 C837.54,471.18 839.68,462.58 842.15,471.18 Z" id="Path" fill="#333333"></path>
            <path d="M404.86,293.49 C394.86,299.71 381.6,302.15 375.1,316.75 C368.6,331.35 357.79,398.17 361.3,410.07 C364.81,421.97 371.04,424.41 376.45,425.22 C381.86,426.03 423,414.4 423,414.4 L436.25,333.79 L438.14,310.26 L404.86,293.49 Z" id="Path" fill="#3B4D56"></path>
            <path d="M396.29,299 C396.704931,297.340899 397.379956,295.757965 398.29,294.31 C399.64,292.31 405.86,289.8 406.41,289.98 C406.96,290.16 407.31,293.5 407.31,293.5 L408.31,293.05 C408.31,293.05 407.68,289.44 406.69,288.63 C405.757848,287.796011 404.481535,287.461118 403.26,287.73 C401.91,288 396.26,292.33 395.87,293.05 C395.48,293.77 394.43,299.05 394.43,299.05 L396.29,299 Z" id="Path" fill="#475C65"></path>
            <path d="M477.26,359.85 C477.26,359.85 472.26,341 471.49,336.14 C470.72,331.28 458.1,297.73 449.71,290.7 L450.67,323 L457.61,363.71 L461.22,369.71 C461.22,369.71 473.75,367.42 477.26,359.85 Z" id="Path" fill="#1793CE"></path>
            <path d="M458.72,357.68 C457.62,335.88 457.81,307.55 454.34,298.98 C452.580417,294.402187 449.356379,290.534747 445.17,287.98 C440.39,285.28 434.87,287.66 429.95,288.73 C425.18,289.73 420.31,292.04 415.88,294.05 C410.88,296.32 405.4,297.95 400.68,300.69 C396.12,303.34 391.68,306.17 387.22,309.03 C372.49,318.54 372.79,327.03 377.38,347.7 C381.97,368.37 382.61,444.7 382.61,444.7 C406.13,461.78 433.93,455.3 433.93,455.3 C433.93,455.3 452.45,452.07 459.43,443.05 C459.44,443.11 459.82,379.48 458.72,357.68 Z M438.23,371.23 C438.23,371.32 438.23,371.41 438.23,371.5 C438.04,367.76 437.83,364.18 437.58,360.8 C437.91,364.5 438.15,368 438.23,371.23 Z" id="Shape" fill="#FFFFFF" fill-rule="nonzero"></path>
            <path d="M407.12,282.55 C408.65,286.25 406.19,296.05 407.27,299.45 C408.35,302.85 418.32,311.98 427.17,308.6 C436.02,305.22 435.78,299.31 435.11,290.96 C434.44,282.61 407.12,282.55 407.12,282.55 Z" id="Path" fill="#856446"></path>
            <path d="M428.21,306.11 C428.21,306.11 432.54,322.34 433.08,337.49 C433.62,352.64 427.08,458.68 427.08,458.68 C427.08,458.68 402.73,462.74 382.18,446.51 L378.66,378.07 L377.31,318.38 C377.31,318.38 378.03,315.68 384.16,310.08 C390.29,304.48 404.16,296.74 404.16,296.74 L418.41,304.67 L428.21,306.11 Z" id="Path" fill="#0D6592"></path>
            <path d="M405.31,364.54 C405.31,364.54 397.15,399.12 377.67,405.88 L378.08,412.88 C378.08,412.88 403.24,397.33 408.78,379.2 C414.32,361.07 413.24,359.2 413.24,359.2 L405.31,364.54 Z" id="Path" fill="#475C65"></path>
            <path d="M439.91,251.32 C440.083333,251.573333 440.25,251.833333 440.41,252.1 C441.70487,254.138316 442.537707,256.435445 442.85,258.83 C443.14,261.27 442.58,263.68 442.66,266.13 C442.72,267.75 443.97,269.34 444.2,272.86 C444.43,276.38 442.2,294.24 432.2,295.67 C422.2,297.1 415.67,291.31 412.91,288.94 C410.15,286.57 403.43,278.09 403.43,278.09 C403.43,278.09 397.5,268.23 396.14,262.58 C395.303112,258.280849 395.602999,253.837701 397.01,249.69 C397.454634,247.860414 398.352147,246.171989 399.62,244.78 C401.46,243.09 404.15,243.09 406.35,242.13 C407.99,241.41 408.66,239.54 410.46,238.81 C412.72,237.89 416.54,238.35 418.88,238.76 C427,240.15 435.21,244.4 439.91,251.32 Z" id="Path" fill="#A47C55"></path>
            <path d="M442.1,246 C442.506944,244.074604 442.271598,242.068894 441.43,240.29 C441.294609,240.794427 441.048665,241.262404 440.71,241.66 C439.05,239.19 437.59,237.28 434.71,236.18 C434.19,237.37 434.23,238.18 433.02,238.33 C432.378858,238.127718 431.756515,237.870081 431.16,237.56 C429.96,237.12 428.72,236.79 427.48,236.47 C426.033199,235.959372 424.503292,235.725306 422.97,235.78 C422.994582,236.193187 422.957509,236.607732 422.86,237.01 C419.122106,236.275476 415.271088,236.340228 411.56,237.2 C410.12,237.57 408.2,238.04 407.19,239.2 C406.75,239.71 406.01,242.3 405.63,242.41 L401.2,243.74 C396.77,245.07 394.77,256.89 396.13,262.54 C397.49,268.19 403.42,278.05 403.42,278.05 C403.42,278.05 404.53,279.45 406.02,281.26 C403.29,276.77 402.11,269.02 406.6,270.12 C411.09,271.22 411.21,275.96 411.21,275.96 L413.16,275.96 C413.16,275.96 413.23,270.14 412.98,268.52 C412.59,265.91 416.05,264 415.75,261.23 C415.506068,260.281853 415.212327,259.347223 414.87,258.43 C414.18,255.27 417,256.78 418.87,257.01 C421.351549,257.273555 423.855531,257.243346 426.33,256.92 C429.12,256.55 433.12,255.64 435.45,254.09 C437.36,252.82 439.83,251.09 440.97,249.09 C441.521495,248.132617 441.903763,247.0873 442.1,246 Z" id="Path" fill="#333333"></path>
            <path d="M383.92,402 C378.57,396.48 374.38,391.62 374.13,389.69 C373.43,384.17 372.31,356.18 372.66,340.21 C373.01,324.24 376.25,314.67 383.49,314.51 C397.23,314.22 397.59,328.51 396.86,349.8 C396.13,371.09 395.78,379.93 395.78,379.93 L401.87,390" id="Path" fill="#F5C5AB"></path>
            <path d="M407.3,293.49 C407.3,293.49 414.51,300.34 421.37,303.23 L428.22,306.12 C428.22,306.12 425.33,318.38 425.33,320.55 C425.33,322.72 408.74,311.55 405.49,306.84 C402.24,302.13 403.33,298.84 403.33,298.84 L405.76,291.13 L407.52,289.24 L407.3,293.49 Z" id="Path" fill="#074D6F"></path>
            <path d="M378.26,316.75 C380.42,312.06 389.44,312.75 393.41,316.39 C397.38,320.03 398.41,332.8 399.18,355.52 C399.95,378.24 400.44,380 400.44,380 L402.6,386.13 C402.6,386.13 384.93,401 382,401.69 C379.07,402.38 373.16,388.62 373.16,388.62 C373.16,388.62 371.94,352.87 372.89,333.8 C373.6,320.46 378.26,316.75 378.26,316.75 Z" id="Path" fill="#1793CE"></path>
            <path d="M400.44,380 L376.27,397.13 C376.27,397.13 380.27,403.13 382.27,403.8 C384.27,404.47 405.17,389.37 405.17,389.37 L400.44,380 Z" id="Path" fill="#0D6592"></path>
            <path d="M480.15,366.7 C480.15,366.7 472.94,375.36 463.02,376.08 C461.839147,374.194001 460.987042,372.12122 460.5,369.95 C460.5,369.95 470.06,365.44 473.12,363.28 C474.623709,362.290658 476.01524,361.140549 477.27,359.85 C477.27,359.85 480.69,363.28 480.15,366.7 Z" id="Path" fill="#0D6592"></path>
            <path d="M437.59,299.08 C440.79,306.25 445.66,320.72 446.88,331.41 C448.1,342.1 452.88,412.41 453.37,422.41 C453.86,432.41 454.72,449.46 454.72,449.46 L461.48,443.78 C461.48,443.78 459.86,346.13 457.96,321.24 C456.06,296.35 452.96,288.77 441.31,286.7 C441.31,286.7 439.58,291.77 436.47,293.86 L437.59,299.08 Z" id="Path" fill="#0D6592"></path>
            <path d="M435.35,294.59 C436.250421,296.004899 437.001132,297.509672 437.59,299.08 C438.13,300.88 442.82,308.08 442.82,308.08 C442.82,308.08 443.54,300.51 442.28,297.44 C441.335894,295.369782 440.013186,293.494249 438.38,291.91 C437.551768,292.989898 436.522968,293.89986 435.35,294.59 Z" id="Path" fill="#074D6F"></path>
            <path d="M384.21,310.08 C384.21,310.08 389.98,303.32 396.65,301.08 C396.65,301.08 407.11,308.47 411.65,320.92 C416.19,333.37 415,358 414.33,361.29 C413.66,364.58 404.23,367.6 402.79,362.55 C401.35,357.5 404.79,334.06 397.56,319.63 C391.52,307.57 384.21,310.08 384.21,310.08 Z" id="Path" fill="#475C65"></path>
            <path d="M439.8,289.92 C439.8,289.92 446.66,295.11 449.36,306.92 C452.06,318.73 452.61,337.35 453.69,339.25 C454.77,341.15 458.96,339.79 459.51,336.82 C460.06,333.85 455.99,303.55 452.75,296.82 C449.51,290.09 444.36,287.08 443.28,286.68 C442.742069,286.465923 442.186678,286.298637 441.62,286.18 L439.8,289.92 Z" id="Path" fill="#475C65"></path>
            <path d="M459,338.12 C459,338.12 460.17,355.43 460.26,359.04 C460.259714,362.022326 460.109524,365.002753 459.81,367.97 C459.81,367.97 457.1,356.34 456.47,349.12 C455.84,341.9 455.47,339.56 455.47,339.56 L459,338.12 Z" id="Path" fill="#475C65"></path>
            <polygon id="Path" fill="#FFFFFF" points="243 531 623 301.798928 997 531"></polygon>
            <path d="M681.52,307.46 C681.52,307.46 667.23,342.1 666.52,344.4 C665.81,346.7 667.79,349.58 668.37,353.29 C668.95,357 666.44,362.16 665.06,362.66 C663.68,363.16 663.68,357.2 662.88,356.71 C662.08,356.22 660.36,359.71 659.41,362.22 C658.46,364.73 657.98,372 655.64,371.61 C653.3,371.22 649.51,360.05 649.8,355.7 C650.09,351.35 655.15,343.89 656.51,340.7 C657.87,337.51 666.74,295.32 666.74,295.32 C666.74,295.32 676.68,272.52 686.5,278.85 C696.32,285.18 681.52,307.46 681.52,307.46 Z" id="Path" fill="#FBD9C4"></path>
            <path d="M687.65,246.52 C680.41,257.27 667.71,288.1 667.71,288.1 C669.987035,291.442032 672.789937,294.393521 676.01,296.84 C680.72,300.14 683.18,300.33 683.18,300.33 C683.18,300.33 697.65,271.81 699.83,261.33 C702.01,250.85 692.85,238.79 687.65,246.52 Z" id="Path" fill="#6399AD"></path>
            <path d="M678.12,336.57 C689.22,343.24 730.68,366.36 751.01,380.05 C751.01,380.05 752.62,317.24 756.93,297.75 C761.24,278.26 761.53,270.32 747.67,261.37 C743.5,258.68 739.3,256.02 735,253.52 C730.7,251.02 725.4,249.41 720.71,247.27 C716.54,245.38 711.96,243.27 707.47,242.27 C702.98,241.27 697.65,239.02 693.16,241.56 C689.230491,243.954553 686.200608,247.578461 684.54,251.87 C681.28,259.93 681.45,286.58 680.42,307.08 C679.39,327.58 678.12,336.57 678.12,336.57 Z" id="Path" fill="#538499"></path>
            <path d="M729,236.42 C727.56,239.9 729.88,249.12 728.86,252.32 C727.84,255.52 718.46,264.1 710.15,260.92 C701.84,257.74 702.05,252.18 702.68,244.33 C703.31,236.48 729,236.42 729,236.42 Z" id="Path" fill="#F2C4AF"></path>
            <path d="M698.11,207 C697.95,207.24 697.79,207.483333 697.63,207.73 C696.410703,209.646932 695.625673,211.80747 695.33,214.06 C695.05,216.36 695.59,218.62 695.51,220.93 C695.46,222.46 694.27,223.93 694.06,227.26 C693.85,230.59 695.98,247.37 705.31,248.71 C714.64,250.05 720.86,244.61 723.46,242.38 C726.06,240.15 732.37,232.17 732.37,232.17 C732.37,232.17 737.95,222.89 739.23,217.58 C740.016124,213.537485 739.733474,209.359787 738.41,205.46 C737.990695,203.737963 737.144709,202.14916 735.95,200.84 C734.22,199.25 731.69,199.25 729.62,198.35 C728.08,197.67 727.44,195.92 725.75,195.23 C723.63,194.36 720.03,194.8 717.83,195.23 C710.25,196.54 702.54,200.53 698.11,207 Z" id="Path" fill="#FBD9C4"></path>
            <path d="M696.05,202.06 C695.664699,200.249381 695.886091,198.362276 696.68,196.69 C696.805301,197.164213 697.034118,197.604771 697.35,197.98 C698.91,195.65 700.29,193.86 702.96,192.83 C703.45,193.95 703.41,194.75 704.55,194.83 C705.153501,194.638154 705.739066,194.39389 706.3,194.1 C707.43,193.69 708.59,193.38 709.76,193.1 C711.123325,192.618551 712.565096,192.398045 714.01,192.45 C713.985404,192.839489 714.019109,193.230467 714.11,193.61 C717.626412,192.920074 721.248962,192.981416 724.74,193.79 C726.09,194.14 727.9,194.58 728.85,195.68 C729.27,196.16 729.96,198.59 730.31,198.68 L734.48,199.93 C738.65,201.18 740.48,212.3 739.25,217.61 C738.02,222.92 732.39,232.2 732.39,232.2 C732.39,232.2 731.39,233.52 729.94,235.2 C732.51,230.97 733.62,223.68 729.4,224.72 C725.18,225.76 725.06,230.21 725.06,230.21 L723.23,230.21 C723.23,230.21 723.17,224.74 723.4,223.21 C723.77,220.76 720.51,218.96 720.79,216.36 C721.020498,215.469426 721.297545,214.591553 721.62,213.73 C722.27,210.73 719.62,212.18 717.85,212.4 C715.521222,212.644849 713.171713,212.614641 710.85,212.31 C708.23,211.97 704.46,211.1 702.27,209.65 C700.48,208.46 698.15,206.86 697.08,204.99 C696.569471,204.0804 696.220949,203.088975 696.05,202.06 Z" id="Path" fill="#9A6D50"></path>
            <path d="M751.18,266.49 C738.25,266.21 737.91,279.62 738.61,299.69 C739.31,319.76 739.61,328.03 739.61,328.03 L716.4,366.4 C713.9627,366.641563 711.581289,367.279984 709.35,368.29 C705.95,369.91 699.65,375.83 699.99,378.03 C700.33,380.23 706.73,375.17 707.68,376.47 C708.63,377.77 704.76,385.77 703.68,387.36 C702.6,388.95 698.29,389.43 698.37,391.36 C698.45,393.29 701.01,394.61 708.01,392.56 C715.01,390.51 718.41,388.89 721.19,385.87 C723.97,382.85 728.19,370.3 728.19,370.3 C728.19,370.3 759.36,342.4 760.02,337.2 C760.68,332 761.73,305.68 761.4,290.65 C761.07,275.62 758,266.63 751.18,266.49 Z" id="Path" fill="#FBD9C4"></path>
            <path d="M737.22,319.05 C737,327.87 759.22,327.41 763.22,322.6 C763.22,322.6 762.8,292.39 762.56,281.86 C762.32,271.33 755.22,263.52 748.04,265.54 C740.86,267.56 736.76,275.43 736.46,287.14 C736.16,298.85 737.22,319.05 737.22,319.05 Z" id="Path" fill="#6399AD"></path>
            <path d="M693.14,220.74 L693.14,224.31 C693.276166,226.326116 694.572293,228.07901 696.46,228.8 L699.37,229.8 C701.17,230.43 702.71,229.63 702.97,227.94 L703.32,225.61 L704.06,225.87 L704.41,228.44 C704.764192,230.42784 706.128369,232.087589 708.01,232.82 L712.56,234.42 C714.39,235.06 715.88,234.1 715.88,232.27 L715.88,228.7 C715.778292,227.350222 714.905265,226.180989 713.64,225.7 L706.44,223.17 C705.816545,222.913949 705.106056,222.989133 704.55,223.37 C704.285681,223.599063 704.103144,223.90797 704.03,224.25 L703.35,224.01 C703.254731,223.5681 703.078423,223.147674 702.83,222.77 C702.378109,222.072552 701.716254,221.536765 700.94,221.24 L695.38,219.33 C694.897003,219.076517 694.315582,219.09935 693.853952,219.38993 C693.392321,219.68051 693.120307,220.194884 693.14,220.74 Z M705.58,225.46 C705.528627,225.232326 705.605268,224.994737 705.78,224.84 C705.96908,224.703459 706.216184,224.676848 706.43,224.77 L713.63,227.3 C713.971671,227.4288 714.206356,227.745625 714.23,228.11 L714.23,231.68 C714.255439,232.093955 714.056016,232.489539 713.708094,232.715274 C713.360173,232.941009 712.917658,232.96192 712.55,232.77 L708,231.17 C706.956547,230.773383 706.197461,229.858685 706,228.76 L705.58,225.46 Z M694.77,221.32 C694.760168,221.171868 694.831181,221.029992 694.955655,220.949084 C695.080129,220.868176 695.238616,220.860876 695.37,220.93 L700.93,222.84 C701.198157,222.941941 701.426164,223.127855 701.58,223.37 C701.737116,223.590467 701.808244,223.860754 701.78,224.13 L701.33,227.13 C701.266816,227.571689 700.990996,227.954291 700.591916,228.153832 C700.192835,228.353372 699.721262,228.344466 699.33,228.13 L696.42,227.13 C695.465225,226.765719 694.809382,225.87955 694.74,224.86 L694.74,221.29 L694.77,221.32 Z" id="Shape" fill="#3B4D56" fill-rule="nonzero"></path>
            <path d="M715.45,227.23 C715.45,227.23 727.92,224 729.08,224 C729.708375,223.930479 730.320276,224.230584 730.65,224.77 C730.65,224.77 728.08,224.41 726.86,226.17 L715.16,229.32 L715.45,227.23 Z" id="Path" fill="#3B4D56"></path>
            <path d="M465,376.08 C469.56,387.17 473,395.7 473.56,397.34 C474.33,399.79 472.21,402.85 471.56,406.8 C470.91,410.75 473.56,416.23 475.08,416.8 C476.6,417.37 476.54,411 477.4,410.48 C478.26,409.96 480.08,413.63 481.09,416.34 C482.1,419.05 482.61,426.74 485.09,426.34 C487.57,425.94 491.6,414.05 491.29,409.43 C490.98,404.81 485.6,396.87 484.16,393.52 C483.25,391.41 481.16,382.15 478.3,368.67 L465,376.08 Z" id="Path" fill="#A47C55"></path>
            <path d="M401.87,390 L420.46,420.73 C423.052343,420.983179 425.585804,421.658769 427.96,422.73 C431.58,424.45 438.28,430.73 437.91,433.09 C437.54,435.45 430.74,430.09 429.73,431.43 C428.72,432.77 432.83,441.31 433.99,443.01 C435.15,444.71 439.72,445.21 439.64,447.27 C439.56,449.33 436.83,450.73 429.39,448.55 C421.95,446.37 418.33,444.65 415.39,441.44 C412.45,438.23 408,424.88 408,424.88 C408,424.88 393.91,412.3 383.92,402 L401.87,390 Z" id="Path" fill="#A47C55"></path>
            <path d="M605.6,309.94 C610.16,321.03 613.6,329.56 614.16,331.2 C614.93,333.65 612.81,336.71 612.16,340.66 C611.51,344.61 614.16,350.09 615.68,350.66 C617.2,351.23 617.14,344.86 618,344.34 C618.86,343.82 620.68,347.49 621.69,350.2 C622.7,352.91 623.21,360.6 625.69,360.2 C628.17,359.8 632.2,347.91 631.89,343.29 C631.58,338.67 626.2,330.73 624.76,327.38 C623.85,325.27 621.76,316.01 618.9,302.53 L605.6,309.94 Z" id="Path" fill="#F5C5AB"></path>
            <path d="M999.05,343.93 C999.05,343.93 986.99,352.59 984.25,378.87 C981.51,405.15 978.85,410.78 978.85,410.78 C978.85,410.78 933.45,424.27 931.53,425.18 C931.53,425.18 940.24,443.62 940.16,448.18 C940.16,448.18 979.57,441.11 985.16,438.61 C990.75,436.11 1005.71,420.73 1005.65,413.61 C1005.59,406.49 1018.86,354.42 999.05,343.93 Z" id="Path" fill="#989898"></path>
            <path d="M932.06,426.28 C932.06,426.28 913.92,433.9 913.06,434.06 C912.2,434.22 907.45,439.37 907.45,440.28 C907.45,441.19 905.45,446.81 906.39,448.17 C907.33,449.53 908.51,458.03 914.13,456.67 C919.75,455.31 940.23,445.44 940.23,445.44 L932.06,426.28 Z" id="Path" fill="#A47C55"></path>
            <path d="M806.07,335.65 L806.07,413 C806.07,413 894.52,471.4 894.95,465.84 C895.38,460.28 894.95,383.84 894.95,383.84 L806.07,335.65 Z" id="Path" fill="#808080"></path>
            <polygon id="Path" fill="#666666" points="894.95 465.84 901.79 459.57 902.37 382.14 894.95 383.81"></polygon>
            <polygon id="Path" fill="#4D4D4D" points="806.07 335.65 813.77 334.69 902.37 382.14 894.95 383.81"></polygon>
            <polygon id="Path" fill="#808080" points="835.55 411.5 835.55 469.19 852.64 480.08 852.22 421.75"></polygon>
            <polygon id="Path" fill="#666666" points="852.22 421.75 855.63 421.75 855.63 479.65 852.64 480.08"></polygon>
            <polygon id="Path" fill="#989898" points="835.55 411.5 837.9 410.85 855.63 421.75 852.22 421.75"></polygon>
            <polygon id="Path" fill="#808080" points="855.63 477.09 872.94 467.05 855.63 456.79"></polygon>
            <polygon id="Path" fill="#666666" points="855.63 479.65 872.94 467.05 855.63 477.09"></polygon>
            <polygon id="Path" fill="#CBCBCB" points="596.05 350.63 641.1 372.13 609.15 391.09 564.01 369.54"></polygon>
            <polygon id="Path" fill="#666666" points="597.83 356.25 631.07 372.24 607.7 385.8 574.46 370.22"></polygon>
            <polygon id="Path" fill="#808080" points="609.15 391.09 609.37 393.77 564.29 372.97 564.01 369.54"></polygon>
            <polygon id="Path" fill="#989898" points="609.37 393.77 641.33 375.03 641.1 372.13 609.15 391.09"></polygon>
            <path d="M614.42,369 C610.7,369.53 607.92,371.63 608.21,373.71 C608.5,375.79 611.76,377.04 615.48,376.52 C619.2,376 621.98,373.89 621.69,371.81 C621.4,369.73 618.14,368.5 614.42,369 Z M615.3,375.26 C612.82,375.61 610.65,374.77 610.46,373.39 C610.27,372.01 612.12,370.6 614.59,370.25 C617.06,369.9 619.24,370.74 619.43,372.12 C619.62,373.5 617.78,374.94 615.3,375.29 L615.3,375.26 Z" id="Shape" fill="#EF6462" fill-rule="nonzero"></path>
            <path d="M607,377.7 C605.31,377.94 604,378.9 604.17,379.85 C604.34,380.8 605.79,381.37 607.48,381.13 C609.17,380.89 610.48,379.93 610.31,378.98 C610.14,378.03 608.67,377.46 607,377.7 Z M607.4,380.55 C606.27,380.71 605.28,380.33 605.19,379.7 C605.1,379.07 605.94,378.43 607.07,378.27 C608.2,378.11 609.19,378.49 609.28,379.12 C609.37,379.75 608.5,380.39 607.38,380.55 L607.4,380.55 Z" id="Shape" fill="#DD9E35" fill-rule="nonzero"></path>
            <polygon id="Path" fill="#F2CE31" points="597.05 359.96 605.34 363.98 602.63 365.48 594.32 361.58"></polygon>
            <polygon id="Path" fill="#F2CE31" points="582.72 368.46 590.92 372.43 588.28 374 579.96 370.09"></polygon>
            <polygon id="Path" fill="#1793CE" points="592.21 362.83 602.64 367.88 600 369.44 589.47 364.46"></polygon>
            <polygon id="Path" fill="#0D6592" points="587.01 365.92 598.26 371.42 595.57 372.96 584.34 367.59"></polygon>
            <polygon id="Path" fill="#E5E5E5" points="729.27 431.64 752.96 448.64 793.68 426.84 768.63 410.43"></polygon>
            <polygon id="Path" fill="#CBCBCB" points="752.96 448.64 752.89 450.07 729.19 433.07 729.27 431.64"></polygon>
            <polygon id="Path" fill="#B2B2B2" points="752.89 450.07 793.6 428.27 793.68 426.84 752.96 448.64"></polygon>
            <polygon id="Path" fill="#DD9E35" points="733.66 431.87 753.12 445.56 756.64 443.65 737.17 430.03"></polygon>
            <polygon id="Path" fill="#CBCBCB" points="744.89 425.92 764.35 439.61 784.68 428.66 765.21 415.04"></polygon>
            <polygon id="Path" fill="#989898" points="739.46 428.53 758.92 442.23 760.68 441.27 741.21 427.65"></polygon>
            <path d="M760.77,419.47 C760.84,419.47 764.44,423.27 764.84,422.65 C764.802819,422.699575 764.805798,422.768502 764.847119,422.814683 C764.888439,422.860865 764.956612,422.871461 765.01,422.84 C765.996667,422.68 766.26,422.99 765.8,423.77 C765.784491,423.814372 765.794141,423.86366 765.82524,423.898905 C765.85634,423.934151 765.904042,423.949864 765.95,423.94 L766.13,424.06 C766.109761,424.116239 766.130478,424.179031 766.180209,424.212186 C766.229941,424.24534 766.295871,424.240312 766.34,424.2 C767.34,423.48 767.03,424.26 766.89,425.2 C766.88832,425.246256 766.911361,425.289916 766.950495,425.314633 C766.98963,425.339349 767.038954,425.341393 767.08,425.32 C768.08,424.8 769.22,426.16 770.08,426.73 C770.94,427.3 772.8,427.34 772.82,428.53 C772.819812,428.603577 772.87661,428.664745 772.95,428.67 C773.40134,429.11238 773.717039,429.674394 773.86,430.29 C773.868211,430.337874 773.902426,430.377176 773.948712,430.391904 C773.994999,430.406631 774.045634,430.394326 774.08,430.36 C774.47,429.97 776.38,432.02 776.16,431.76 C776.192154,431.795727 776.240925,431.811585 776.287942,431.801603 C776.334959,431.79162 776.373079,431.757312 776.387942,431.711603 C776.402805,431.665893 776.392154,431.615727 776.36,431.58 C775.8,430.92 774.94,430.58 774.57,429.73 C774.545525,429.696472 774.506511,429.676649 774.465,429.676649 C774.423489,429.676649 774.384475,429.696472 774.36,429.73 C773.84,430.25 773.05,427.17 773.04,427.11 C773.030922,427.062528 772.996257,427.024011 772.95,427.01 C771.95,426.78 770.55,427.4 770.19,426.25 C770.174042,426.195376 770.126607,426.155846 770.07,426.15 C770.33,426.15 768.07,425.03 767.92,424.79 C767.55,424.29 767.22,424.79 767.5,423.2 C767.507401,423.144936 767.47899,423.091254 767.429296,423.066407 C767.379602,423.04156 767.319611,423.051041 767.28,423.09 C767.043825,423.359824 766.771204,423.595423 766.47,423.79 C766.485509,423.745628 766.475859,423.69634 766.44476,423.661095 C766.41366,423.625849 766.365958,423.610136 766.32,423.62 C766.200113,423.193195 766.242873,422.737085 766.44,422.34 C766.455509,422.295628 766.445859,422.24634 766.41476,422.211095 C766.38366,422.175849 766.335958,422.160136 766.29,422.17 C767.73,421.82 765.19,422.62 765.44,422.24 C765.471201,422.195253 765.471146,422.135786 765.439863,422.091096 C765.40858,422.046406 765.352724,422.026 765.3,422.04 C763.47,422.58 762.35,420.12 760.93,419.25 C760.869249,419.208579 760.786421,419.224249 760.745,419.285 C760.703579,419.345751 760.719249,419.428579 760.78,419.47 L760.77,419.47 Z" id="Path" fill="#666666"></path>
            <path d="M756.46,421.5 C756.53,421.5 760.13,425.3 760.53,424.68 C760.492819,424.729575 760.495798,424.798502 760.537119,424.844683 C760.578439,424.890865 760.646612,424.901461 760.7,424.87 C761.686667,424.71 761.95,425.02 761.49,425.8 C761.474491,425.844372 761.484141,425.89366 761.51524,425.928905 C761.54634,425.964151 761.594042,425.979864 761.64,425.97 L761.82,426.09 C761.799761,426.146239 761.820478,426.209031 761.870209,426.242186 C761.919941,426.27534 761.985871,426.270312 762.03,426.23 C763.03,425.51 762.72,426.29 762.58,427.23 C762.57832,427.276256 762.601361,427.319916 762.640495,427.344633 C762.67963,427.369349 762.728954,427.371393 762.77,427.35 C763.77,426.83 764.91,428.19 765.77,428.76 C766.63,429.33 768.49,429.37 768.51,430.56 C768.509812,430.633577 768.56661,430.694745 768.64,430.7 C769.09134,431.14238 769.407039,431.704394 769.55,432.32 C769.558211,432.367874 769.592426,432.407176 769.638712,432.421904 C769.684999,432.436631 769.735634,432.424326 769.77,432.39 C770.16,432 772.07,434.05 771.85,433.79 C771.899706,433.845228 771.984772,433.849706 772.04,433.8 C772.095228,433.750294 772.099706,433.665228 772.05,433.61 C771.49,432.95 770.63,432.61 770.26,431.76 C770.235525,431.726472 770.196511,431.706649 770.155,431.706649 C770.113489,431.706649 770.074475,431.726472 770.05,431.76 C769.53,432.28 768.74,429.2 768.73,429.14 C768.720922,429.092528 768.686257,429.054011 768.64,429.04 C767.64,428.81 766.24,429.43 765.88,428.28 C765.864042,428.225376 765.816607,428.185846 765.76,428.18 C766.02,428.18 763.76,427.06 763.61,426.82 C763.24,426.32 762.91,426.82 763.19,425.23 C763.197401,425.174936 763.16899,425.121254 763.119296,425.096407 C763.069602,425.07156 763.009611,425.081041 762.97,425.12 C762.733825,425.389824 762.461204,425.625423 762.16,425.82 C762.175509,425.775628 762.165859,425.72634 762.13476,425.691095 C762.10366,425.655849 762.055958,425.640136 762.01,425.65 C761.890113,425.223195 761.932873,424.767085 762.13,424.37 C762.145509,424.325628 762.135859,424.27634 762.10476,424.241095 C762.07366,424.205849 762.025958,424.190136 761.98,424.2 C763.42,423.85 760.88,424.65 761.13,424.27 C761.161201,424.225253 761.161146,424.165786 761.129863,424.121096 C761.09858,424.076406 761.042724,424.056 760.99,424.07 C759.16,424.61 758.04,422.15 756.62,421.28 C756.559249,421.238579 756.476421,421.254249 756.435,421.315 C756.393579,421.375751 756.409249,421.458579 756.47,421.5 L756.46,421.5 Z" id="Path" fill="#666666"></path>
            <path d="M752.33,424.93 C752.4,424.93 756,428.73 756.4,428.11 C756.362819,428.159575 756.365798,428.228502 756.407119,428.274683 C756.448439,428.320865 756.516612,428.331461 756.57,428.3 C757.556667,428.14 757.82,428.45 757.36,429.23 C757.344491,429.274372 757.354141,429.32366 757.38524,429.358905 C757.41634,429.394151 757.464042,429.409864 757.51,429.4 L757.69,429.52 C757.669761,429.576239 757.690478,429.639031 757.740209,429.672186 C757.789941,429.70534 757.855871,429.700312 757.9,429.66 C758.9,428.94 758.59,429.72 758.45,430.66 C758.44832,430.706256 758.471361,430.749916 758.510495,430.774633 C758.54963,430.799349 758.598954,430.801393 758.64,430.78 C759.64,430.26 760.78,431.62 761.64,432.19 C762.5,432.76 764.36,432.8 764.38,433.99 C764.379812,434.063577 764.43661,434.124745 764.51,434.13 C764.96134,434.57238 765.277039,435.134394 765.42,435.75 C765.428211,435.797874 765.462426,435.837176 765.508712,435.851904 C765.554999,435.866631 765.605634,435.854326 765.64,435.82 C766.03,435.43 767.94,437.48 767.72,437.22 C767.769706,437.275228 767.854772,437.279706 767.91,437.23 C767.965228,437.180294 767.969706,437.095228 767.92,437.04 C767.36,436.38 766.5,436.04 766.13,435.19 C766.105525,435.156472 766.066511,435.136649 766.025,435.136649 C765.983489,435.136649 765.944475,435.156472 765.92,435.19 C765.4,435.71 764.61,432.63 764.6,432.57 C764.590922,432.522528 764.556257,432.484011 764.51,432.47 C763.51,432.24 762.11,432.86 761.75,431.71 C761.734042,431.655376 761.686607,431.615846 761.63,431.61 C761.89,431.61 759.63,430.49 759.48,430.25 C759.11,429.75 758.78,430.25 759.06,428.66 C759.067401,428.604936 759.03899,428.551254 758.989296,428.526407 C758.939602,428.50156 758.879611,428.511041 758.84,428.55 C758.603825,428.819824 758.331204,429.055423 758.03,429.25 C758.045509,429.205628 758.035859,429.15634 758.00476,429.121095 C757.97366,429.085849 757.925958,429.070136 757.88,429.08 C757.760113,428.653195 757.802873,428.197085 758,427.8 C758.015509,427.755628 758.005859,427.70634 757.97476,427.671095 C757.94366,427.635849 757.895958,427.620136 757.85,427.63 C759.29,427.28 756.75,428.08 757,427.7 C757.031201,427.655253 757.031146,427.595786 756.999863,427.551096 C756.96858,427.506406 756.912724,427.486 756.86,427.5 C755.03,428.04 753.91,425.58 752.49,424.71 C752.429249,424.668579 752.346421,424.684249 752.305,424.745 C752.263579,424.805751 752.279249,424.888579 752.34,424.93 L752.33,424.93 Z" id="Path" fill="#666666"></path>
            <path d="M631.62,274.2 L631.62,342.79 C631.62,342.79 710.06,392.79 710.44,387.89 C710.82,382.99 710.44,316.89 710.44,316.89 L631.62,274.2 Z" id="Path" fill="#808080"></path>
            <polygon id="Path" fill="#666666" points="710.45 387.89 716.51 384.1 716.51 316.91 710.45 316.91"></polygon>
            <polygon id="Path" fill="#4D4D4D" points="631.62 274.2 638.46 273.35 716.51 316.91 710.45 316.91"></polygon>
            <polygon id="Path" fill="#808080" points="657.77 341.46 657.77 392.62 672.93 402.29 672.55 350.56"></polygon>
            <polygon id="Path" fill="#666666" points="672.55 350.56 675.58 350.56 675.58 401.91 672.93 402.29"></polygon>
            <polygon id="Path" fill="#989898" points="657.77 341.46 659.85 340.89 675.58 350.56 672.55 350.56"></polygon>
            <polygon id="Path" fill="#808080" points="675.58 399.63 690.93 390.73 675.58 381.63"></polygon>
            <polygon id="Path" fill="#666666" points="675.58 401.91 690.93 390.73 675.58 399.63"></polygon>
            <path d="M542.51,323.85 L561.1,354.58 C563.692343,354.833179 566.225804,355.508769 568.6,356.58 C572.22,358.3 578.92,364.58 578.55,366.94 C578.18,369.3 571.38,363.94 570.37,365.28 C569.36,366.62 573.47,375.16 574.63,376.86 C575.79,378.56 580.36,379.06 580.28,381.12 C580.2,383.18 577.47,384.58 570.03,382.4 C562.59,380.22 558.97,378.5 556.03,375.29 C553.09,372.08 548.62,358.74 548.62,358.74 C548.62,358.74 534.57,346.16 524.57,335.86 L542.51,323.85 Z" id="Path" fill="#F5C5AB"></path>
            <polygon id="Path" fill="#CBCBCB" points="519.93 423.39 577.48 450.86 536.67 475.09 479 447.56"></polygon>
            <polygon id="Path" fill="#F1F1F1" points="522.2 430.57 564.66 451.01 534.81 468.32 492.36 448.43"></polygon>
            <polygon id="Path" fill="#989898" points="536.67 475.09 536.67 478.44 577.48 454.34 577.48 450.86"></polygon>
            <polygon id="Path" fill="#808080" points="479 447.56 479 450.86 536.67 478.44 536.67 475.09"></polygon>
            <polygon id="Path" fill="#EF6462" points="555.9 450.74 550.42 453.99 525.83 442.25 531.07 438.77"></polygon>
            <polygon id="Path" fill="#1793CE" points="543.16 459.22 535.02 464.04 531.97 462.59 540.28 457.73"></polygon>
            <polygon id="Path" fill="#F2CE31" points="531.9 454.08 523.96 458.86 520.23 457.09 528.26 452.16"></polygon>
            <polygon id="Path" fill="#1793CE" points="535.85 457.83 529.68 461.55 525.94 459.77 532.13 456.17"></polygon>
            <polygon id="_Path_" fill="#F1F1F1" points="516.33 456.06 521.48 447.95 510.74 441.14 504.52 448.57"></polygon>
            <polygon id="Path" fill="#399897" points="506.6 445.34 507.16 445.7 507.03 445.99 507.86 444.78 507.91 444.81 507.44 445.87 507.53 445.93 507.45 446.14 507.8 445.87 507.76 446.15 508.19 446.42 508.57 446.23 508.56 446.48 508.67 446.55 508.46 446.97 509.32 445.85 509.38 445.89 508.86 446.86 508.96 446.92 509.36 446.64 509.3 446.9 509.57 447.07 509.63 447.26 509.72 447.32 510.16 446.97 510.08 447.3 510.2 447.38 510.13 447.49 510.22 447.55 510.08 447.85 510.91 446.77 510.97 446.81 510.47 447.74 510.58 447.8 510.88 447.61 510.89 447.83 511.1 447.96 511.15 448.13 511.33 448.25 511.61 448.03 511.56 448.37 512.43 447.58 511.69 448.9 511.97 448.64 512.08 448.7 512.05 448.81 512.34 448.6 512.27 448.89 512.38 448.96 512.37 449.07 512.61 449.23 512.62 449.48 513.04 449.22 513.02 449.42 513.13 449.49 512.96 449.86 513.75 448.83 513.81 448.86 513.44 449.68 513.56 449.75 513.9 449.51 513.87 449.81 514.2 450.02 514.17 450.14 514.36 450.01 514.48 450.08 514.78 449.85 514.65 450.18 514.72 450.23 514.69 450.37 514.82 450.45 514.45 451.15 515.56 449.51 515.62 449.55 515.09 450.66 515.21 450.74 515.46 450.57 515.44 450.87 515.57 450.96 515.58 451.09 515.87 451.27 515.87 451.42 516.28 451.21 516.28 451.56 516.38 451.63 516.26 451.93 517.18 450.66 517.24 450.69 516.7 451.77 517.02 451.72 516.96 451.93 517.08 451.88 517.26 452 517.3 452.1 517.48 451.95 517.38 452.23 517.41 452.21 517.61 452.34 518.02 452.16 517.94 452.41 518.06 452.34 518.05 452.5 518.18 452.59 518.84 451.55 518.52 452.48 518.37 452.73 518.59 452.07 517.89 453.18 517.83 453.14 518.11 452.61 517.99 452.53 517.99 452.45 517.81 452.55 517.91 452.28 517.62 452.41 517.42 452.28 517.23 452.45 517.33 452.16 517.27 452.22 517.21 452.03 517.08 451.95 516.85 452.05 516.93 451.8 516.58 451.85 516.98 451.05 515.99 452.42 516.3 451.65 516.21 451.59 516.21 451.32 515.8 451.53 515.8 451.3 515.51 451.12 515.51 450.99 515.37 450.9 515.38 450.7 515.22 450.81 515.01 450.68 515.37 449.92 514.15 451.72 514.09 451.68 514.74 450.47 514.62 450.39 514.65 450.25 514.57 450.2 514.63 450.05 514.49 450.16 514.37 450.08 514.08 450.3 514.12 450.04 513.8 449.84 513.82 449.65 513.57 449.83 513.36 449.7 513.62 449.11 512.82 450.16 512.76 450.12 513.05 449.5 512.95 449.44 512.96 449.35 512.55 449.59 512.54 449.25 512.3 449.1 512.31 448.98 512.2 448.91 512.24 448.76 511.93 448.97 512 448.72 511.99 448.71 511.41 449.26 512.16 447.92 511.47 448.55 511.52 448.18 511.34 448.32 511.1 448.16 511.04 447.99 510.83 447.86 510.82 447.73 510.58 447.88 510.38 447.75 510.71 447.13 509.93 448.15 509.87 448.12 510.14 447.56 510.04 447.5 510.11 447.39 510.01 447.32 510.05 447.15 509.74 447.4 509.58 447.3 509.52 447.1 509.22 446.92 509.25 446.79 508.96 446.99 508.77 446.87 509.12 446.22 508.28 447.31 508.22 447.27 508.59 446.56 508.49 446.5 508.5 446.34 508.2 446.5 507.69 446.17 507.71 446.02 507.29 446.35 507.45 445.95 507.36 445.89 507.69 445.14 506.87 446.35 506.81 446.32 507.08 445.71 506.57 445.39"></polygon>
            <path d="M508.28,442.7 L508.49,442.53 L508.49,442.76 L508.73,442.56 L508.81,442.81 L508.88,442.7 L509.06,442.81 L509.06,443 L509.52,442.46 L509.58,442.46 L509.26,442.97 L509.35,443.03 L509.72,442.75 L509.72,443.17 L509.95,443.04 L509.95,443.25 L510.13,443.1 L510.04,443.39 L510.44,443.33 L510.44,443.38 C510.44,443.38 510.34,443.71 510.29,443.86 L510.4,443.79 L510.46,443.79 L510.36,444.63 L510.75,444.4 L510.6,444.75 L510.87,444.56 L510.81,444.86 L511.11,444.63 L510.89,445.07 L511.03,445.16 L510.97,445.31 L511.08,445.18 L511.16,445.18 L511.55,444.84 L511.55,445.16 L511.82,444.97 L511.82,445.23 C511.99,445.02 512.22,444.73 512.26,444.68 C512.3,444.63 512.26,444.68 512.26,444.68 C512.26,444.68 512.18,444.96 512.13,445.15 L512.38,444.96 L512.46,445.19 L512.85,444.74 L512.85,444.96 L513.34,444.59 L513.34,444.81 L513.76,444.38 L513.69,444.63 L514.06,444.28 L513.93,444.65 L514.27,444.23 L514.19,444.66 L514.6,444.18 L514.55,444.34 C514.45,444.66 514.3,445.17 514.26,445.34 L514.37,445.23 L514.46,445.12 L514.29,445.86 L514.45,445.96 L514.32,446.45 L514.56,446.61 L514.56,447 L514.83,446.8 L514.76,447.21 L515,447 L514.85,447.4 L515.25,446.77 L515.31,446.77 C515.31,446.86 515.15,447.24 515.08,447.41 L515.27,447.28 L515.37,447.21 L515.2,447.62 L515.44,447.42 L515.57,447.5 L515.87,447.03 L515.66,447.74 L515.88,447.64 L515.88,447.82 L516.03,447.74 L516.17,447.83 L516.17,448.29 L516.73,447.69 L516.27,448.63 L516.39,448.71 L516.65,448.38 L516.89,448.53 L516.89,448.74 L517.04,448.84 L518.14,448.09 L517.89,448.93 L518.15,448.69 L518.23,448.69 L518.95,447.88 L518.39,449.05 L518.84,448.68 L518.67,449.09 L518.76,449.15 L518.7,449.32 L519.31,449 L519.31,449.23 L519.43,449.31 L519.37,449.47 L519.49,449.35 L519.71,449.49 L519.6,449.88 L519.74,449.88 L519.74,450.1 L519.85,450.1 L519.85,450.26 L520.21,449.77 L520.12,450.22 L520.02,450.38 L520.09,450.05 L519.73,450.53 L519.8,450.18 L519.69,450.18 L519.74,449.93 L519.6,449.93 L519.72,449.5 L519.59,449.42 L519.26,449.76 L519.44,449.32 L519.33,449.25 L519.33,449.11 L518.68,449.45 L518.78,449.16 L518.69,449.1 L518.77,448.9 L518.3,449.29 L518.78,448.29 L518.36,448.77 L518.28,448.72 L517.87,449.09 L518.13,448.21 L517.13,448.86 L516.9,448.71 L516.9,448.5 L516.75,448.41 L516.49,448.74 L516.36,448.66 L516,449 L516.45,448.09 L516.08,448.48 L516.08,447.87 L516.01,447.87 L515.78,447.99 L515.78,447.8 L515.53,447.92 L515.64,447.53 L515.57,447.65 L515.43,447.56 L515,447.92 L515.2,447.46 C515.01,447.59 515,447.58 514.97,447.56 C514.97,447.56 515.06,447.34 515.13,447.13 L514.71,447.79 L514.65,447.79 L514.82,447.33 L514.59,447.53 L514.67,447.11 L514.43,447.3 L514.43,446.84 L514.18,446.68 L514.31,446.19 L514.15,446.09 L514.27,445.58 C514.2,445.65 514.17,445.64 514.16,445.64 C514.219985,445.338295 514.300165,445.040959 514.4,444.75 L514,445 L514.08,444.58 L513.67,445.09 L513.83,444.61 L513.48,444.94 L513.55,444.71 L513.22,445.05 L513.22,444.8 L512.7,445.2 L512.7,445.04 L512.39,445.4 L512.3,445.15 L511.97,445.41 L511.97,445.31 L512.07,444.93 L511.7,445.39 L511.65,445.45 L511.65,445.14 L511.35,445.35 L511.35,445.05 L511.05,445.31 L510.98,445.31 L510.64,445.71 L510.82,445.23 L510.67,445.14 L510.78,444.91 L510.57,445.07 L510.63,444.77 L510.3,445.01 L510.47,444.62 L510.15,444.81 L510.24,443.97 C510.1,444.06 510.08,444.05 510.07,444.03 C510.07,444.03 510.17,443.73 510.23,443.54 L509.83,443.6 L509.88,443.43 L509.75,443.54 L509.75,443.3 L509.53,443.43 L509.53,443.03 L509.24,443.25 L509.05,443.13 L509.14,442.98 L508.82,443.36 L508.91,442.94 L508.84,442.94 L508.73,443.12 L508.64,442.83 L508.34,443.07 L508.34,442.84 L508.12,443.01 L508.28,442.7 Z" id="Path" fill="#C93538"></path>
            <polygon id="Path" fill="#0D6796" points="505.09 447.72 505.67 448.09 505.63 448.38 506.12 447.76 505.95 448.33 506.19 448.48 506.37 448.92 506.82 448.64 506.84 449.28 507.7 448.53 507.34 449.35 508.02 449.78 508.48 449.64 508.43 449.9 509.14 449.26 508.83 450.14 509.27 449.89 509.51 450.56 510.39 449.9 510.09 451.13 510.51 450.76 510.39 451.13 510.94 451.48 510.92 451.97 511.26 451.87 511.39 452.23 512.09 451.84 512.11 452.32 512.59 452.62 513.04 452.44 512.97 453.06 513.49 452.67 513.27 453.34 513.59 453.16 513.71 453.6 514.42 453.46 514.43 453.81 514.54 453.74 514.65 453.82 514.94 453.67 514.84 454.1 515.18 453.78 515.19 454.24 515.32 454.17 515.76 454.45 515.75 454.63 515.87 454.71 516.03 454.62 516.47 454.9 516.41 455.19 516.58 455.11 516.77 455.24 516.74 455.29 516.58 455.18 516.32 455.3 516.39 454.92 516.04 454.69 515.88 454.78 515.68 454.66 515.69 454.47 515.33 454.24 515.13 454.35 515.12 453.93 514.72 454.31 514.84 453.79 514.66 453.89 514.55 453.82 514.37 453.92 514.36 453.53 513.66 453.67 513.55 453.26 513.15 453.49 513.36 452.85 512.88 453.21 512.96 452.54 512.59 452.69 512.04 452.35 512.03 451.95 511.36 452.33 511.22 451.95 510.85 452.06 510.87 451.5 510.31 451.15 510.37 450.98 509.97 451.33 510.28 450.07 509.48 450.66 509.24 449.98 508.7 450.29 508.99 449.49 508.33 450.09 508.39 449.74 508.02 449.85 507.26 449.37 507.52 448.78 506.78 449.42 506.76 448.76 506.34 449.02 506.14 448.52 505.88 448.35 505.96 448.07 505.52 448.61 505.6 448.11 505.06 447.77"></polygon>
            <rect id="Rectangle" fill="#FFFFFF" transform="translate(513.435552, 447.655162) rotate(-147.600000) translate(-513.435552, -447.655162) " x="506.440552" y="447.605162" width="13.99" height="1"></rect>
            <rect id="Rectangle" fill="#FFFFFF" transform="translate(511.703688, 450.385570) rotate(-147.600000) translate(-511.703688, -450.385570) " x="504.708688" y="450.33557" width="13.99" height="1"></rect>
        </g>
    </g>
</svg>