<svg xmlns="http://www.w3.org/2000/svg" xmlns:xlink="http://www.w3.org/1999/xlink" width="785.369" height="619.52" viewBox="0 0 785.369 619.52">
  <defs>
    <linearGradient id="linear-gradient" x1="0.5" x2="0.75" y2="0.5" gradientUnits="objectBoundingBox">
      <stop offset="0" stop-color="#2b476b"/>
      <stop offset="1" stop-color="#00a3b1"/>
    </linearGradient>
  </defs>
  <g id="Group_5924" data-name="Group 5924" transform="translate(-26.423 -160.214)">
    <path id="Path_19275" data-name="Path 19275" d="M526.589,215.554s-116.009,8.154-259.445,8.154S7.7,215.554,7.7,215.554,123.709,207.4,267.145,207.4,526.589,215.554,526.589,215.554Z" transform="translate(20.923 556.027)" fill="#006e7a"/>
    <g id="Group_5923" data-name="Group 5923" transform="translate(26.423 266.635)">
      <g id="Group_5882" data-name="Group 5882" transform="translate(330.406 11.994)">
        <g id="Group_5871" data-name="Group 5871" transform="translate(0 0.353)">
          <rect id="Rectangle_537" data-name="Rectangle 537" width="323.839" height="200.018" fill="#00a3b1"/>
          <rect id="Rectangle_538" data-name="Rectangle 538" width="296.676" height="175.678" transform="translate(13.405 11.994)" fill="#fff"/>
          <path id="Path_19276" data-name="Path 19276" d="M293.7,198.438v-82.9h-16.58v82.9H266.538V138.115H250.311v60.323H239.728V110.6H223.5v87.839H212.917V97.9H196.69V198.438H186.107V138.115h-16.58v60.323H157.18V85.2H153.3V201.966H305.695v-3.528Z" transform="translate(-7.96 -34.049)" fill="#073040"/>
          <rect id="Rectangle_539" data-name="Rectangle 539" width="92.425" height="5.644" transform="translate(29.632 39.863)" fill="#00a3b1"/>
          <rect id="Rectangle_540" data-name="Rectangle 540" width="92.425" height="5.644" transform="translate(29.632 56.09)" fill="#00a3b1"/>
          <rect id="Rectangle_541" data-name="Rectangle 541" width="45.507" height="5.644" transform="translate(29.632 71.964)" fill="#00a3b1"/>
          <g id="Group_5861" data-name="Group 5861" transform="translate(65.262 141.459)">
            <path id="Path_19277" data-name="Path 19277" d="M154.588,110.8v16.227l-8.114,8.114H130.6V110.8Z" transform="translate(-130.6 -110.8)" fill="#00a3b1"/>
            <path id="Path_19278" data-name="Path 19278" d="M143.214,115.4l-8.114,8.114V115.4Z" transform="translate(-119.226 -99.173)" fill="#006f78"/>
          </g>
          <g id="Group_5863" data-name="Group 5863" transform="translate(30.691 141.459)">
            <g id="Group_5862" data-name="Group 5862">
              <rect id="Rectangle_542" data-name="Rectangle 542" width="23.988" height="23.988" fill="#ff5c4e"/>
            </g>
          </g>
          <path id="Path_19279" data-name="Path 19279" d="M271.585,102.566l-13.758,3.528,3.88,3.88L244.775,126.2l-57.5-44.8L158.7,102.919l2.117,2.822,26.457-19.755,57.854,45.154,19.049-18.7,3.528,3.88Z" transform="translate(5.689 -43.654)" fill="#00a3b1"/>
          <g id="Group_5865" data-name="Group 5865" transform="translate(29.632 94.189)">
            <path id="Path_19280" data-name="Path 19280" d="M153.66,113.98A16.58,16.58,0,1,1,137.08,97.4,16.561,16.561,0,0,1,153.66,113.98Z" transform="translate(-120.5 -97.4)" fill="#073040"/>
            <g id="Group_5864" data-name="Group 5864" transform="translate(4.939 4.939)">
              <path id="Path_19281" data-name="Path 19281" d="M133.541,98.8a11.641,11.641,0,1,0,11.641,11.641A11.745,11.745,0,0,0,133.541,98.8Zm-2.117,1.764a7.172,7.172,0,0,0-2.469,4.233,5.685,5.685,0,0,1-2.469-1.411A8.736,8.736,0,0,1,131.425,100.564Zm-6,3.528a12.689,12.689,0,0,0,3.175,1.764,13.227,13.227,0,0,0-.353,3.88h-4.586A9.76,9.76,0,0,1,125.428,104.091Zm-2.117,6.7H127.9a17.706,17.706,0,0,0,.706,4.233c-1.058.353-2.117,1.058-3.175,1.411A13.47,13.47,0,0,1,123.311,110.794Zm3.175,6.7a8.842,8.842,0,0,1,2.469-1.411,12.2,12.2,0,0,0,2.469,4.233A10.057,10.057,0,0,1,126.486,117.5Zm6.35,2.117c-1.058-.353-2.117-1.764-2.822-3.88a7.767,7.767,0,0,1,2.822-.353Zm0-5.292c-1.058,0-2.117.353-3.175.353a13.227,13.227,0,0,1-.353-3.88h3.88v3.528Zm0-4.586h-3.528c0-1.411.353-2.469.353-3.88a9.766,9.766,0,0,0,3.175.353Zm0-4.233c-1.058,0-2.117-.353-2.822-.353.705-2.117,1.764-3.88,2.822-4.233Zm10.936,4.233h-4.586c0-1.411-.353-2.822-.353-3.88a14.3,14.3,0,0,0,3.175-1.764A21.3,21.3,0,0,1,143.772,109.736Zm-2.822-6.35a8.842,8.842,0,0,1-2.469,1.411c-.706-1.764-1.411-3.528-2.469-4.233A10.057,10.057,0,0,1,140.949,103.386Zm-6.7-2.469c1.058.353,2.469,1.764,2.822,4.233a8.767,8.767,0,0,1-2.822.353Zm0,5.644c1.058,0,2.117-.353,3.175-.353a13.227,13.227,0,0,1,.353,3.88h-3.88v-3.528Zm0,4.233h3.88c0,1.411-.353,2.822-.353,3.88a9.766,9.766,0,0,0-3.175-.353v-3.528Zm0,8.819v-4.586c1.058,0,2.117.353,2.822.353C136.363,117.849,135.305,119.26,134.247,119.613Zm1.411.706c1.058-.706,1.764-2.117,2.469-4.233A5.686,5.686,0,0,1,140.6,117.5,7.722,7.722,0,0,1,135.658,120.319Zm6-3.88a6.647,6.647,0,0,0-3.175-1.411c.353-1.411.353-2.822.706-4.233h4.586A13.47,13.47,0,0,1,141.655,116.438Z" transform="translate(-121.9 -98.8)" fill="#fff"/>
            </g>
          </g>
          <g id="Group_5866" data-name="Group 5866" transform="translate(69.848 94.541)">
            <circle id="Ellipse_101" data-name="Ellipse 101" cx="16.227" cy="16.227" r="16.227" fill="#ff5c4e"/>
            <path id="Path_19282" data-name="Path 19282" d="M153.86,107.466h-2.117a1.833,1.833,0,0,0-.706-1.411l1.411-1.411a1.073,1.073,0,0,0,0-1.411l-1.764-1.764a1.073,1.073,0,0,0-1.411,0l-1.411,1.411c-.353-.353-1.058-.353-1.411-.706v-2.117A.935.935,0,0,0,145.394,99h-2.469a.935.935,0,0,0-1.058,1.058v2.117a1.833,1.833,0,0,0-1.411.706l-1.411-1.411a1.073,1.073,0,0,0-1.411,0l-1.764,1.764a1.073,1.073,0,0,0,0,1.411l1.411,1.411c-.353.353-.353,1.058-.706,1.411h-2.117a.935.935,0,0,0-1.058,1.058v2.469a.935.935,0,0,0,1.058,1.058h2.117a1.833,1.833,0,0,0,.706,1.411l-1.411,1.411a1.073,1.073,0,0,0,0,1.411l1.764,1.764a1.073,1.073,0,0,0,1.411,0l1.411-1.411c.353.353,1.058.353,1.411.706v2.117a.935.935,0,0,0,1.058,1.058h2.469a.935.935,0,0,0,1.058-1.058v-2.117a1.833,1.833,0,0,0,1.411-.706l1.411,1.411a1.073,1.073,0,0,0,1.411,0l1.764-1.764a1.073,1.073,0,0,0,0-1.411l-1.411-1.411c.353-.353.353-1.058.706-1.411h2.117a.935.935,0,0,0,1.058-1.058v-2.469A1.126,1.126,0,0,0,153.86,107.466Zm-9.525,6.7a4.233,4.233,0,1,1,4.233-4.233A4.29,4.29,0,0,1,144.336,114.169Z" transform="translate(-128.108 -93.709)" fill="#fff"/>
          </g>
          <g id="Group_5870" data-name="Group 5870" transform="translate(114.296 97.011)">
            <g id="Group_5867" data-name="Group 5867">
              <rect id="Rectangle_543" data-name="Rectangle 543" width="6.703" height="6.703" fill="#073040"/>
              <rect id="Rectangle_544" data-name="Rectangle 544" width="6.703" height="6.703" transform="translate(10.936)" fill="#073040"/>
            </g>
            <g id="Group_5868" data-name="Group 5868" transform="translate(0 10.23)">
              <rect id="Rectangle_545" data-name="Rectangle 545" width="6.703" height="6.703" fill="#00a3b1"/>
              <rect id="Rectangle_546" data-name="Rectangle 546" width="6.703" height="6.703" transform="translate(10.936)" fill="#0081b2"/>
            </g>
            <g id="Group_5869" data-name="Group 5869" transform="translate(0 20.46)">
              <rect id="Rectangle_547" data-name="Rectangle 547" width="6.703" height="6.703" fill="#0081b2"/>
              <rect id="Rectangle_548" data-name="Rectangle 548" width="6.703" height="6.703" transform="translate(10.936)" fill="#0081b2"/>
            </g>
          </g>
        </g>
        <g id="Group_5879" data-name="Group 5879" transform="translate(252.933 81.423)">
          <g id="Group_5872" data-name="Group 5872" transform="translate(1.208)">
            <path id="Path_19283" data-name="Path 19283" d="M294.761,160.328s-29.632,23.988-55.384,15.522c-25.4-8.466-35.277-56.443-35.277-56.443s5.644-9.878,0-13.052c0,0,1.058-8.114-4.586-8.819s-28.221,6-5.291,23.635c0,0,6.35,86.78,55.737,89.6,49.034,3.175,48.682-9.172,48.682-9.172Z" transform="translate(-184.143 -84.065)" fill="#e9e9e9"/>
            <path id="Path_19284" data-name="Path 19284" d="M203.895,128.671s1.058-2.117,2.117-4.586h0c5.292-1.764,2.469-15.169.353-17.286-1.764-1.764-4.233-.706-5.291,0-1.058-2.117-7.408-14.111-10.936-13.052-2.469.706,0,8.819,2.117,14.111-7.408,2.822-14.463,9.877,2.117,22.577a172.474,172.474,0,0,0,3.528,22.224,87.234,87.234,0,0,0,12.7-3.88A138.652,138.652,0,0,1,203.895,128.671Z" transform="translate(-183.937 -93.681)" fill="#f4eed8"/>
          </g>
          <path id="Path_19285" data-name="Path 19285" d="M246.966,140.6,225.8,167.763l4.586,5.644,28.221-22.93Z" transform="translate(-77.638 24.913)" fill="#f4eed8"/>
          <path id="Path_19286" data-name="Path 19286" d="M219.7,113.4s34.571,3.528,42.332,14.816,35.982,41.979,32.807,65.262c-2.822,23.283-16.227,30.338-16.227,30.338l-16.58-14.463s10.936-8.819,8.819-17.285c-1.764-8.819-25.752-31.749-25.752-31.749l-18.7-37.746Z" transform="translate(-93.057 -43.839)" fill="#fff"/>
          <g id="Group_5878" data-name="Group 5878" transform="translate(0 7.121)">
            <g id="Group_5877" data-name="Group 5877">
              <g id="Group_5876" data-name="Group 5876">
                <g id="Group_5875" data-name="Group 5875">
                  <g id="Group_5873" data-name="Group 5873" transform="translate(0 176.03)">
                    <path id="Path_19288" data-name="Path 19288" d="M247.1,203.8l1.058,5.644,1.411,7.408-31.4,7.761a2.038,2.038,0,0,1-2.117-3.175,24.169,24.169,0,0,1,6-6,126.165,126.165,0,0,1,11.994-8.466Z" transform="translate(-103.176 1.51)" fill="#fff"/>
                    <path id="Path_19289" data-name="Path 19289" d="M234.287,203.8l-.353,5.644-.353,7.408-32.1.705a2.037,2.037,0,0,1-1.411-3.528c1.764-1.764,4.586-3.175,7.055-4.586a96.433,96.433,0,0,1,13.405-5.292Z" transform="translate(-144.332 1.51)" fill="#fff"/>
                    <path id="Path_19290" data-name="Path 19290" d="M287.017,156.889s-3.88,49.387-14.816,93.13l10.936,102.655-17.286,1.764s-17.991-67.378-22.93-83.253c-5.644-17.638,0-61.734,0-61.734s-15.169,33.866-15.169,50.093,1.764,91.366,1.764,91.366-11.641,3.175-17.285,0S202,250.724,202,250.724L224.577,145.6C224.224,145.953,254.209,153.714,287.017,156.889Z" transform="translate(-137.797 -145.6)" fill="#0e0e15"/>
                  </g>
                  <path id="Path_19291" data-name="Path 19291" d="M284.514,242.162c1.058-10.23,4.233-79.725-.353-95.247-9.525-34.571-30.338-33.513-30.338-33.513-6.35,14.816-19.4,4.586-19.4,4.586S211.139,132.1,218.9,170.551c4.939,24.694-4.939,47.623-12.7,60.676C228.777,246.748,258.409,250.629,284.514,242.162Z" transform="translate(-127.18 -50.963)" fill="#fff"/>
                  <path id="Path_19292" data-name="Path 19292" d="M219.866,123.017s-8.466,4.939-8.466,9.525,5.644,11.289,5.644,11.289l8.114-9.525,7.761,11.289s25.4-19.4,8.819-30.338C225.158,104.673,219.866,123.017,219.866,123.017Z" transform="translate(-114.037 -54.581)" fill="#ff5c4e"/>
                  <g id="Group_5874" data-name="Group 5874" transform="translate(89.292)">
                    <path id="Path_19293" data-name="Path 19293" d="M210.128,114.259s-6.35,34.571,12.7,34.218,26.1-14.111,24.694-22.224-2.469-24.341-18.7-26.457C212.6,98.032,210.128,114.259,210.128,114.259Z" transform="translate(-209.112 -85.685)" fill="#f4eed8"/>
                    <path id="Path_19294" data-name="Path 19294" d="M262.8,116.513a15.393,15.393,0,0,0-6-5.644h0a20.649,20.649,0,0,0-.706-4.586,29.423,29.423,0,0,0-2.822-4.233,17.122,17.122,0,0,1,0,6,16.286,16.286,0,0,0-3.175-5.292,21.411,21.411,0,0,0-3.528-2.469,36.509,36.509,0,0,0-19.4-3.175c-1.411,0-3.175.353-4.586.353a6.509,6.509,0,0,1-4.233-1.764,15.362,15.362,0,0,0,3.528,5.644c-14.111,4.939-11.994,18.344-11.994,18.344,4.586-1.764,9.525.706,9.525.706-.353,12.7,22.93,18.7,22.93,18.7,3.528-3.175,8.114-1.411,8.114-1.411a5.417,5.417,0,0,1,2.822,4.233c5.291-3.88,6.7-23.283,6.7-23.283a5.9,5.9,0,0,1,4.233.353C263.5,118.63,263.148,117.571,262.8,116.513Z" transform="translate(-207.454 -95.7)" fill="#0e0e15"/>
                    <path id="Path_19295" data-name="Path 19295" d="M218.627,114.483a6.236,6.236,0,1,0,5.291-7.055A6.509,6.509,0,0,0,218.627,114.483Z" transform="translate(-185.157 -66.154)" fill="#f4eed8"/>
                    <path id="Path_19296" data-name="Path 19296" d="M234.36,108.9l.706,4.586a9.87,9.87,0,0,0,.353,2.117c0,1.764.353,4.586.353,7.408,0,4.233-.353,8.819-2.117,10.23-3.528,3.175-16.933,3.88-18.7,3.175-.706-.353-1.058-2.822-1.058-5.644v-5.644h0c0-5.644.353-11.641.353-11.641Z" transform="translate(-197.01 -62.335)" fill="#f4eed8"/>
                    <path id="Path_19297" data-name="Path 19297" d="M235.319,110.9c0,1.764.353,4.586.353,7.408-5.291,2.469-15.874,7.055-21.871,7.408v-5.644h0C214.153,120.072,233.2,116.191,235.319,110.9Z" transform="translate(-197.262 -57.28)" fill="#ebe0be"/>
                  </g>
                </g>
              </g>
            </g>
          </g>
        </g>
        <g id="Group_5881" data-name="Group 5881" transform="translate(358.763)">
          <path id="Path_19298" data-name="Path 19298" d="M291.409,70.6H220.855a7.076,7.076,0,0,0-7.055,7.055V128.1a7.076,7.076,0,0,0,7.055,7.055h3.88v17.286l17.286-17.286h49.387a7.076,7.076,0,0,0,7.055-7.055V77.655C298.111,73.775,295.289,70.6,291.409,70.6Z" transform="translate(-213.8 -70.6)" fill="#5cb7ff"/>
          <g id="Group_5880" data-name="Group 5880" transform="translate(9.877 9.877)">
            <rect id="Rectangle_549" data-name="Rectangle 549" width="64.909" height="5.644" fill="#fff"/>
            <rect id="Rectangle_550" data-name="Rectangle 550" width="64.909" height="5.644" transform="translate(0 13.052)" fill="#fff"/>
            <rect id="Rectangle_551" data-name="Rectangle 551" width="64.909" height="5.644" transform="translate(0 26.105)" fill="#fff"/>
            <rect id="Rectangle_552" data-name="Rectangle 552" width="34.924" height="5.644" transform="translate(0 38.804)" fill="#fff"/>
          </g>
        </g>
      </g>
      <g id="Group_5893" data-name="Group 5893" transform="translate(258.425 365.818)">
        <g id="Group_5887" data-name="Group 5887" transform="translate(34.235 31.749)">
          <path id="Path_19299" data-name="Path 19299" d="M187.828,191.189H107.044a5.572,5.572,0,0,1-5.644-5.644h0a5.572,5.572,0,0,1,5.644-5.644h80.431a5.572,5.572,0,0,1,5.644,5.644h0A5.287,5.287,0,0,1,187.828,191.189Z" transform="translate(-101.4 -179.9)" fill="#353537"/>
          <g id="Group_5883" data-name="Group 5883" transform="translate(37.746 11.289)">
            <rect id="Rectangle_553" data-name="Rectangle 553" width="10.936" height="55.384" transform="translate(2.822 8.819)" fill="#ebe0be"/>
            <rect id="Rectangle_554" data-name="Rectangle 554" width="16.933" height="21.519" fill="#f4eed8"/>
          </g>
          <g id="Group_5886" data-name="Group 5886" transform="translate(10.583 73.023)">
            <g id="Group_5885" data-name="Group 5885">
              <rect id="Rectangle_555" data-name="Rectangle 555" width="65.967" height="7.055" transform="translate(2.469)" fill="#353537"/>
              <g id="Group_5884" data-name="Group 5884" transform="translate(0 7.055)">
                <path id="Path_19300" data-name="Path 19300" d="M116.394,208.6a6,6,0,1,1-6-6A5.741,5.741,0,0,1,116.394,208.6Z" transform="translate(-104.4 -202.6)" fill="#ebe0be"/>
                <path id="Path_19301" data-name="Path 19301" d="M132.994,208.6a6,6,0,1,1-6-6A5.741,5.741,0,0,1,132.994,208.6Z" transform="translate(-62.441 -202.6)" fill="#ebe0be"/>
              </g>
            </g>
          </g>
        </g>
        <g id="Group_5892" data-name="Group 5892" transform="translate(0 0)">
          <path id="Path_19302" data-name="Path 19302" d="M248.34,191.713C247.634,174.78,204.6,170.9,204.6,170.9c-1.764,0-20.108,0-34.571.353-14.463,0-32.454-.353-34.571-.353,0,0-43.037,3.88-43.743,20.813s21.871,104.066,21.871,104.066h18.7s1.764-87.486-3.175-90.661c0,0,23.283-.353,40.921-1.764,17.638,1.411,40.921,1.764,40.921,1.764-4.939,3.175-3.175,90.661-3.175,90.661h18.7S249.4,208.293,248.34,191.713Z" transform="translate(-91.695 -170.9)" fill="#0f283a"/>
          <g id="Group_5889" data-name="Group 5889" transform="translate(6.321 124.526)">
            <g id="Group_5888" data-name="Group 5888">
              <path id="Path_19303" data-name="Path 19303" d="M125.634,206.553l-.353,4.939V212.9l-.353,5.291H95.3a1.743,1.743,0,0,1-1.058-3.175,4.87,4.87,0,0,1,1.411-1.058c1.411-1.058,3.528-2.117,5.291-3.175a89.2,89.2,0,0,1,12.347-4.586h12.347Z" transform="translate(-93.487 -206.2)" fill="#353537"/>
            </g>
            <path id="Path_19304" data-name="Path 19304" d="M125.281,208.1l-.353,5.292H95.3a1.743,1.743,0,0,1-1.058-3.175,4.869,4.869,0,0,1,1.411-1.058C102,209.864,112.229,209.864,125.281,208.1Z" transform="translate(-93.487 -201.397)" fill="#fff"/>
          </g>
          <g id="Group_5891" data-name="Group 5891" transform="translate(119.957 124.526)">
            <g id="Group_5890" data-name="Group 5890">
              <path id="Path_19305" data-name="Path 19305" d="M125.7,206.553l.353,4.939V212.9l.353,5.291h29.632a1.743,1.743,0,0,0,1.058-3.175,4.87,4.87,0,0,0-1.411-1.058c-1.411-1.058-3.528-2.117-5.292-3.175a89.2,89.2,0,0,0-12.347-4.586H125.7Z" transform="translate(-125.7 -206.2)" fill="#353537"/>
            </g>
            <path id="Path_19306" data-name="Path 19306" d="M125.9,208.1l.353,5.292h29.632a1.743,1.743,0,0,0,1.058-3.175,4.87,4.87,0,0,0-1.411-1.058C148.83,209.864,138.6,209.864,125.9,208.1Z" transform="translate(-125.194 -201.397)" fill="#fff"/>
          </g>
        </g>
      </g>
      <g id="Group_5899" data-name="Group 5899" transform="translate(253.788 191.199)">
        <path id="Path_19307" data-name="Path 19307" d="M189.85,259.052l-.706.353a105.022,105.022,0,0,1-88.544,1.411s2.117-31.4,8.466-69.142a459.736,459.736,0,0,1,11.289-51.151h0l3.175-1.058a62.577,62.577,0,0,1,40.921,0c1.058.353,2.117.706,3.528,1.058C182.795,195.554,189.85,259.052,189.85,259.052Z" transform="translate(-64.55 -84.433)" fill="#ff5c4e"/>
        <g id="Group_5894" data-name="Group 5894" transform="translate(0 56.443)">
          <path id="Path_19308" data-name="Path 19308" d="M145.833,137.4l.46-.322C142,153.9,137.826,171.661,135,188.241c-7.055,5.291-16.334,13.01-17.745,18.654-.706,3.175,2.469,5.644,7.408,7.761l-4.586,15.522H110.2s-21.166-6.35-19.755-23.635c1.058-17.285,34.218-54.679,38.8-61.381C131.722,141.633,139.13,139.164,145.833,137.4Z" transform="translate(-90.381 -137.4)" fill="#ff5c4e"/>
          <path id="Path_19309" data-name="Path 19309" d="M130.549,174.822V166s-16.933-2.117-27.163-6.7L98.8,174.822Z" transform="translate(-69.1 -82.044)" fill="#f4eed8"/>
        </g>
        <g id="Group_5895" data-name="Group 5895" transform="translate(96.725 56.443)">
          <path id="Path_19310" data-name="Path 19310" d="M119.5,137.4h.353c4.586,16.933,8.114,34.571,10.936,51.151,7.055,5.291,15.874,12.7,17.286,18.344.706,3.175-2.469,5.644-7.408,7.761l4.586,15.522h9.877s21.166-6.35,19.755-23.635c-1.058-17.285-34.218-54.679-38.8-61.381C133.611,141.633,126.2,139.164,119.5,137.4Z" transform="translate(-113.503 -137.4)" fill="#ff5c4e"/>
          <path id="Path_19311" data-name="Path 19311" d="M117.8,174.822V166s16.933-2.117,27.163-6.7l4.586,15.522Z" transform="translate(-117.8 -82.044)" fill="#ff5c4e"/>
        </g>
        <rect id="Rectangle_556" data-name="Rectangle 556" width="83.253" height="54.679" transform="translate(41.341 94.541)" fill="#353537"/>
        <g id="Group_5898" data-name="Group 5898" transform="translate(52.277)">
          <path id="Path_19312" data-name="Path 19312" d="M147.921,139.022c-1.058,5.644-4.586,16.933-19.049,16.933S108.764,145.019,107,139.375c1.411-.353,2.469-.706,3.88-1.058a68.785,68.785,0,0,1,33.866,0A10.3,10.3,0,0,1,147.921,139.022Z" transform="translate(-100.65 -83.991)" fill="#f4eed8"/>
          <g id="Group_5897" data-name="Group 5897">
            <path id="Path_19313" data-name="Path 19313" d="M141.713,138.217c-3.88,4.233-10.583,10.23-17.991,10.23-8.819.353-13.758-6.7-15.522-10.23A67.386,67.386,0,0,1,141.713,138.217Z" transform="translate(-97.617 -84.243)" fill="#ebe0be"/>
            <g id="Group_5896" data-name="Group 5896">
              <path id="Path_19314" data-name="Path 19314" d="M149.132,150.157c0,14.816-9.525,26.457-21.166,26.457S106.8,164.621,106.8,150.157c0-14.816,9.525-26.457,21.166-26.457S149.132,135.694,149.132,150.157Z" transform="translate(-101.156 -115.586)" fill="#f4eed8"/>
              <path id="Path_19315" data-name="Path 19315" d="M117.9,137.15a6.35,6.35,0,1,1-6.35-6.35C115.077,131.153,117.9,133.975,117.9,137.15Z" transform="translate(-105.2 -97.64)" fill="#f4eed8"/>
              <path id="Path_19316" data-name="Path 19316" d="M129.6,137.15a6.35,6.35,0,1,1-6.35-6.35C126.777,131.153,129.6,133.975,129.6,137.15Z" transform="translate(-75.626 -97.64)" fill="#f4eed8"/>
              <path id="Path_19317" data-name="Path 19317" d="M154.636,155.266c-.353,2.117-3.528,2.117-3.175,4.233-.706-1.764-1.411-3.88-2.822-5.291,0-4.586-3.528-9.172-8.114-9.877-3.175-.706-6.7.353-10.23,0a17.434,17.434,0,0,1-10.583-4.939c-4.586,5.644-8.114,13.052-8.466,20.46a6.988,6.988,0,0,0-3.88-3.88s-5.292-17.286,1.764-20.46c0,0-2.822-8.466,8.466-10.23s31.4,3.528,34.571-3.88c0,0,4.586,11.994,0,15.169C152.519,136.216,157.1,136.216,154.636,155.266Z" transform="translate(-104.543 -121.4)" fill="#3e3a43"/>
            </g>
          </g>
        </g>
      </g>
      <path id="Path_19318" data-name="Path 19318" d="M105.429,162.938c.353-8.466,5.291-16.227,4.233-24.341-2.117-14.816-23.283-23.988-36.688-19.755-4.586,1.411-8.114,4.939-10.583,9.172a33.982,33.982,0,0,0-8.114,14.816c-1.411,5.291-.353,10.583-.353,16.227a26.7,26.7,0,0,1-.353,5.291,13.424,13.424,0,0,1-3.175,4.586c-2.469,2.469-5.291,4.586-7.761,7.055a33.938,33.938,0,0,0-7.055,11.288c-2.469,6-4.233,12.347-2.469,18.344,2.117,6,7.408,10.23,12.7,13.052a55.186,55.186,0,0,0,34.218,6c7.408-1.058,14.463-3.528,19.755-8.819,4.939-4.939,7.761-12.347,8.466-19.4s-.353-14.463-1.764-21.166C106.487,171.051,105.429,167.171,105.429,162.938Zm-49.74-2.822a59.8,59.8,0,0,0-.353-7.761c-.353-7.761,1.411-14.111,5.291-19.755,0,.353-.353.706-.353,1.411C57.805,142.477,58.511,152,55.689,160.116Z" transform="translate(16.845 60.716)" fill="#ff6748"/>
      <g id="Group_5912" data-name="Group 5912" transform="translate(0 231.767)">
        <g id="Group_5901" data-name="Group 5901" transform="translate(0 43.743)">
          <g id="Group_5900" data-name="Group 5900" transform="translate(0 23.635)">
            <path id="Path_19319" data-name="Path 19319" d="M56.049,271.588c-17.286-2.117-28.927-8.819-34.218-20.813C6.309,216.909,48.993,154.822,50.757,152l4.939,3.528c-.353.705-42.685,61.734-28.574,92.777,4.233,9.877,14.111,15.522,29.28,17.285Z" transform="translate(-18.438 -152)" fill="#f4eed8"/>
          </g>
          <path id="Path_19320" data-name="Path 19320" d="M85.792,208.092H38.169A15.057,15.057,0,0,1,23,192.923V160.469A15.057,15.057,0,0,1,38.169,145.3H85.792Z" transform="translate(-6.909 -145.3)" fill="#353537"/>
          <path id="Path_19321" data-name="Path 19321" d="M109.328,194.889H28.544a5.572,5.572,0,0,1-5.644-5.644h0a5.572,5.572,0,0,1,5.644-5.644h80.431a5.572,5.572,0,0,1,5.644,5.644h0A5.094,5.094,0,0,1,109.328,194.889Z" transform="translate(-7.161 -48.491)" fill="#353537"/>
        </g>
        <g id="Group_5907" data-name="Group 5907" transform="translate(33.024)">
          <g id="Group_5903" data-name="Group 5903" transform="translate(27.163 139.644)">
            <path id="Path_19322" data-name="Path 19322" d="M37.969,211.341s41.979,1.764,55.032,0L80.3,291.772H96.529s35.277-96.658,23.283-108.652-49.74-10.583-49.74-10.583L35.5,190.528Z" transform="translate(-35.5 -172.485)" fill="#1e3148"/>
            <g id="Group_5902" data-name="Group 5902" transform="translate(47.623 119.286)">
              <path id="Path_19323" data-name="Path 19323" d="M49,206.3l.353,4.939.706,7.055H79.691a1.743,1.743,0,0,0,1.058-3.175,55.5,55.5,0,0,0-6.7-4.233A89.2,89.2,0,0,0,61.7,206.3Z" transform="translate(-49 -206.3)" fill="#1e3148"/>
              <path id="Path_19324" data-name="Path 19324" d="M49,206.3l.353,4.939a17.367,17.367,0,0,0,6,2.117,51.663,51.663,0,0,0,10.23.706c3.175,0,6.35-.706,8.114-3.175A89.2,89.2,0,0,0,61.347,206.3Z" transform="translate(-49 -206.3)" fill="#1e3148"/>
            </g>
          </g>
          <path id="Path_19325" data-name="Path 19325" d="M58.077,133s8.819,3.88,13.052,21.166c3.88,17.638,7.055,59.97,7.055,59.97l29.632,9.525.353,13.405L48.2,239.888l1.764-52.209Z" transform="translate(23.764 -132.647)" fill="#067581"/>
          <g id="Group_5905" data-name="Group 5905" transform="translate(3.843 123.547)">
            <g id="Group_5904" data-name="Group 5904" transform="translate(154.196 108.87)">
              <path id="Path_19326" data-name="Path 19326" d="M72.6,203.074l1.764,4.586,2.469,6.35,28.221-8.819c1.764-.353,1.764-2.822.353-3.528-2.117-1.058-4.939-1.411-7.408-2.117a72.63,72.63,0,0,0-13.405-.706Z" transform="translate(-72.6 -198.784)" fill="#2b476b"/>
              <path id="Path_19327" data-name="Path 19327" d="M72.6,202.821l1.764,4.586a38.346,38.346,0,0,0,6.35.353,53.951,53.951,0,0,0,10.23-2.469c2.822-1.058,5.644-2.469,6.7-5.644a72.636,72.636,0,0,0-13.405-.706Z" transform="translate(-72.6 -198.531)" fill="#2b476b"/>
            </g>
            <path id="Path_19328" data-name="Path 19328" d="M31.043,168.9S20.46,213,46.212,221.112c25.4,8.114,97.716-23.283,97.716-23.283l36.335,83.605L197.9,276.5S177.088,169.96,163.683,168.549s-56.8,0-56.8,0H31.043Z" transform="translate(-28.889 -167.922)" fill="#2b476b"/>
          </g>
          <path id="Path_19329" data-name="Path 19329" d="M109.642,257.426l-6.7,1.058L83.89,262.012,27.8,272.243s23.283-64.2,24.694-72.67,1.764-31.4,0-42.685S68.721,132.9,68.721,132.9h40.921l.353.353C131.16,158.3,109.642,257.426,109.642,257.426Z" transform="translate(-27.8 -132.9)" fill="url(#linear-gradient)"/>
          <path id="Path_19330" data-name="Path 19330" d="M68.057,258.585l-19.049,3.528C61.355,179.565,41.6,133,41.6,133H74.76l.353.353C87.107,148.874,71.232,241.652,68.057,258.585Z" transform="translate(7.082 -132.647)" fill="#ffb984"/>
          <path id="Path_19331" data-name="Path 19331" d="M41.7,133s11.641,17.991,24.694,14.111C79.093,143.23,74.86,133,74.86,133Z" transform="translate(7.334 -132.647)" fill="#f4eed8"/>
          <g id="Group_5906" data-name="Group 5906" transform="translate(14.422 0.353)">
            <path id="Path_19332" data-name="Path 19332" d="M125.267,169.294c-2.822-2.469-8.819-9.877-13.758-10.583-2.117-.353-16.58,5.291-16.58,5.291s-24.694-1.058-47.271-2.822L46.6,174.939c15.874-.353,34.218-.706,49.387-1.058,11.289,3.175,22.93.353,28.574-1.411C125.972,172.469,126.678,170.353,125.267,169.294Z" transform="translate(5.298 -68.051)" fill="#f4eed8"/>
            <path id="Path_19333" data-name="Path 19333" d="M58.74,133a39.693,39.693,0,0,0-24.694,30.338c-4.233,23.988-2.117,79.725,5.291,83.958,7.055,3.88,50.446-2.117,50.446-2.117v-19.4l-28.927-1.764S77.083,147.463,58.74,133Z" transform="translate(-31.888 -133)" fill="#067581"/>
          </g>
        </g>
        <g id="Group_5908" data-name="Group 5908" transform="translate(53.485 190.141)">
          <rect id="Rectangle_557" data-name="Rectangle 557" width="10.936" height="55.384" transform="translate(2.822 8.819)" fill="#ebe0be"/>
          <rect id="Rectangle_558" data-name="Rectangle 558" width="16.933" height="21.519" fill="#f4eed8"/>
        </g>
        <g id="Group_5911" data-name="Group 5911" transform="translate(26.322 251.875)">
          <g id="Group_5910" data-name="Group 5910">
            <rect id="Rectangle_559" data-name="Rectangle 559" width="65.967" height="7.055" transform="translate(2.469)" fill="#353537"/>
            <g id="Group_5909" data-name="Group 5909" transform="translate(0 7.055)">
              <path id="Path_19334" data-name="Path 19334" d="M37.894,212.3a6.182,6.182,0,0,1-6,6,6,6,0,0,1,0-11.994A5.741,5.741,0,0,1,37.894,212.3Z" transform="translate(-25.9 -206.3)" fill="#ebe0be"/>
              <path id="Path_19335" data-name="Path 19335" d="M54.594,212.3a6,6,0,1,1-6-6A5.946,5.946,0,0,1,54.594,212.3Z" transform="translate(16.312 -206.3)" fill="#ebe0be"/>
            </g>
          </g>
        </g>
      </g>
      <g id="Group_5913" data-name="Group 5913" transform="translate(110.633 340.419)">
        <rect id="Rectangle_560" data-name="Rectangle 560" width="399.331" height="8.819" transform="translate(0 0)" fill="#ff6748"/>
        <rect id="Rectangle_561" data-name="Rectangle 561" width="377.107" height="9.877" transform="translate(10.936 8.466)" fill="#e34932"/>
      </g>
      <g id="Group_5914" data-name="Group 5914" transform="translate(131.093 358.763)">
        <path id="Path_19336" data-name="Path 19336" d="M63.008,320.237,78.883,168.9H67.241L55.6,320.237Z" transform="translate(-55.6 -168.9)" fill="#353537"/>
        <path id="Path_19337" data-name="Path 19337" d="M174.135,320.237,162.494,168.9H150.5l16.227,151.337Z" transform="translate(184.275 -168.9)" fill="#353537"/>
      </g>
      <g id="Group_5915" data-name="Group 5915" transform="translate(130.035 285.741)">
        <rect id="Rectangle_562" data-name="Rectangle 562" width="46.918" height="5.997" transform="translate(0 48.682)" fill="#353537"/>
        <path id="Path_19338" data-name="Path 19338" d="M139.492,202.879H64L75.994,148.2h75.492Z" transform="translate(-33.309 -148.2)" fill="#353537"/>
      </g>
      <g id="Group_5916" data-name="Group 5916" transform="translate(79.934 185.017)">
        <path id="Path_19339" data-name="Path 19339" d="M75.346,133.22s4.586,28.927-11.289,28.574c-15.874-.706-21.519-11.994-20.108-19.049,1.411-6.7,2.469-20.46,16.227-21.871C73.582,119.462,75.346,133.22,75.346,133.22Z" transform="translate(-34.417 -116.807)" fill="#f4eed8"/>
        <path id="Path_19340" data-name="Path 19340" d="M52.362,133.229a5.191,5.191,0,1,1-4.233-6C50.951,127.585,52.715,130.054,52.362,133.229Z" transform="translate(-38.596 -100.589)" fill="#f4eed8"/>
        <path id="Path_19341" data-name="Path 19341" d="M46.75,146.643a7.4,7.4,0,0,1,7.055,1.411s19.755-4.586,19.4-15.169a11.356,11.356,0,0,1,7.761-.353s-3.528-17.638-26.1-11.641-10.583,29.28-10.583,29.28S44.281,148.407,46.75,146.643Z" transform="translate(-41.098 -119.647)" fill="#ff6748"/>
        <path id="Path_19342" data-name="Path 19342" d="M45.111,128.4l-.706,3.88a6.174,6.174,0,0,1-.353,1.764c0,1.411-.353,3.88-.353,6,0,3.528.353,7.408,1.764,8.466,2.822,2.822,14.111,3.528,15.522,2.822.353-.353.706-2.117,1.058-4.939a21.7,21.7,0,0,1,.353-4.586h0V132.28Z" transform="translate(-34.52 -97.524)" fill="#f4eed8"/>
        <path id="Path_19343" data-name="Path 19343" d="M44.053,130c0,1.411-.353,3.88-.353,6,4.233,2.117,13.405,6.35,18.344,6.7a21.7,21.7,0,0,1,.353-4.586h0C61.691,138.114,46.169,134.586,44.053,130Z" transform="translate(-34.52 -93.48)" fill="#ebe0be"/>
      </g>
      <g id="Group_5917" data-name="Group 5917" transform="translate(117.335 93.836)">
        <path id="Path_19344" data-name="Path 19344" d="M129.309,93.8H58.755a7.076,7.076,0,0,0-7.055,7.055v50.093A7.076,7.076,0,0,0,58.755,158h3.88v17.286L79.921,158h49.387a7.076,7.076,0,0,0,7.055-7.055V100.5A7.264,7.264,0,0,0,129.309,93.8Z" transform="translate(-51.7 -93.8)" fill="#ff5c4e"/>
        <path id="Path_19345" data-name="Path 19345" d="M118.651,97.9l-18.344,5.292,4.939,4.939-9.525,9.877L76.671,103.9,54.8,127.18l3.528,3.175L77.377,110.6l19.049,13.758,12.347-12.7,4.939,4.939Z" transform="translate(-43.864 -83.437)" fill="#fff"/>
      </g>
      <g id="Group_5922" data-name="Group 5922" transform="translate(218.932)">
        <path id="Path_19346" data-name="Path 19346" d="M150.348,102.124A34.924,34.924,0,1,1,115.424,67.2,35,35,0,0,1,150.348,102.124Z" transform="translate(-80.5 -67.2)" fill="#fff"/>
        <g id="Group_5919" data-name="Group 5919" transform="translate(4.939 5.292)">
          <g id="Group_5918" data-name="Group 5918">
            <path id="Path_19347" data-name="Path 19347" d="M111.885,128.317a12,12,0,0,1-3.528-.353l.353-2.469a21.358,21.358,0,0,0,6.7,0l.353,2.469A15.82,15.82,0,0,1,111.885,128.317ZM101.3,126.554a22.466,22.466,0,0,1-6.35-3.528l1.411-2.117a19.611,19.611,0,0,0,6,3.175Zm21.166,0-.706-2.117a24.7,24.7,0,0,0,6-3.175l1.411,2.117C127.054,124.437,124.937,125.5,122.468,126.554Zm-33.16-8.466c-1.764-1.764-2.822-3.88-4.233-6l2.117-1.058a20.552,20.552,0,0,0,3.88,5.292Zm45.154,0-1.764-1.764a31.966,31.966,0,0,0,3.88-5.644l2.117,1.058A32.936,32.936,0,0,1,134.462,118.087ZM82.606,105.74a24,24,0,0,1-.706-7.055h2.469a43.223,43.223,0,0,0,.706,6.7Zm58.206-.353-2.117-.353a39.072,39.072,0,0,0,.706-6.7h2.469A22.743,22.743,0,0,1,140.812,105.388ZM85.075,91.63l-2.469-.706a37.613,37.613,0,0,1,2.469-6.7l2.117,1.058C86.486,87.4,85.428,89.513,85.075,91.63Zm53.62,0a47.114,47.114,0,0,0-2.469-6.35l2.117-1.058a21.837,21.837,0,0,1,2.469,6.7ZM91.072,79.989l-1.764-1.411A67.724,67.724,0,0,1,94.6,73.639l1.411,2.117A28.445,28.445,0,0,0,91.072,79.989Zm41.274,0a18.564,18.564,0,0,0-4.939-4.233l1.411-2.117a17.7,17.7,0,0,1,5.291,4.939ZM102.008,72.58l-.706-2.117a41.263,41.263,0,0,1,7.055-1.764l.353,2.469A20.627,20.627,0,0,0,102.008,72.58Zm19.4,0a20.6,20.6,0,0,0-6.35-1.411l.353-2.469a23.032,23.032,0,0,1,7.055,1.764Z" transform="translate(-81.9 -68.7)" fill="#00a3b1"/>
          </g>
        </g>
        <g id="Group_5921" data-name="Group 5921" transform="translate(32.454 16.58)">
          <g id="Group_5920" data-name="Group 5920">
            <path id="Path_19348" data-name="Path 19348" d="M99.93,106.118,89.7,96.241V71.9h4.939V94.124l8.466,8.466Z" transform="translate(-89.7 -71.9)" fill="#073040"/>
          </g>
        </g>
      </g>
    </g>
    <path id="Path_19349" data-name="Path 19349" d="M197.035,75.367A21.867,21.867,0,1,1,175.167,53.5C187.028,53.871,197.035,63.507,197.035,75.367Z" transform="translate(414.968 144.519)" fill="#ff5c4e"/>
    <path id="Path_19351" data-name="Path 19351" d="M174.686,56.643A13.343,13.343,0,1,1,161.343,43.3,13.287,13.287,0,0,1,174.686,56.643Z" transform="translate(400.624 116.914)" fill="#5cb7ff"/>
  </g>
</svg>
